<svg width="100" height="36" viewBox="0 0 100 36" fill="none" xmlns="http://www.w3.org/2000/svg">
<g id="Icon logo">
<g id="Vector">
<path d="M27.8647 6.41292C25.1669 5.13284 22.3538 4.80289 19.4516 5.50487C16.5841 6.19851 14.2617 7.75259 12.5067 10.1028C10.7294 12.483 9.95821 15.1779 10.1587 18.1175C10.3439 20.8353 11.3659 23.2349 13.1999 25.2827C15.0255 27.3209 17.2856 28.6241 19.9847 29.1492C22.7108 29.6795 25.3326 29.3288 27.8414 28.1369C26.5564 29.1394 25.1319 29.8847 23.5683 30.3372C19.5459 31.5016 15.7119 31.0461 12.143 28.8539C9.24291 27.0726 7.25523 24.5348 6.2779 21.3C5.01134 17.1072 5.60382 13.1315 8.10867 9.51873C10.3165 6.33455 13.3998 4.40204 17.2686 3.78763C21.1667 3.16873 24.6985 4.0864 27.8647 6.41292Z" fill="url(#paint0_linear_7016_2908)"/>
<path d="M17.4458 27.1111C19.6074 27.706 21.7496 27.6813 23.8726 26.9345C25.966 26.1981 27.6462 24.9208 28.9155 23.1172C30.1968 21.2965 30.8302 19.2624 30.7567 17.0475C30.6451 13.6954 29.2279 10.9721 26.4962 8.99583C23.7477 7.00718 20.686 6.57893 17.4205 7.4559C21.2241 5.38532 26.6002 5.74571 30.2347 9.14412C34.4659 13.1005 34.7033 19.0029 32.1533 23.073C30.6217 25.5179 28.4578 27.1651 25.6562 27.9501C22.8136 28.7466 20.0771 28.4289 17.4456 27.1111H17.4458Z" fill="url(#paint1_linear_7016_2908)"/>
<path d="M25.5243 15.1952C25.4494 15.1952 25.4071 15.1952 25.3646 15.1952C24.678 15.1941 23.9914 15.193 23.3048 15.192C23.085 15.1918 23.0878 15.1907 23.0082 14.9895C22.8549 14.6017 22.6312 14.2582 22.3136 13.9827C22.1001 13.7974 21.8594 13.6556 21.5837 13.5666C21.3419 13.4884 21.0996 13.4409 20.846 13.4375C20.7183 13.4358 20.5884 13.3985 20.4635 13.4117C20.2146 13.4382 19.9672 13.4816 19.7215 13.5299C19.2016 13.6326 18.7713 13.9045 18.4035 14.2669C18.0696 14.5962 17.8282 14.9937 17.666 15.4307C17.5834 15.6534 17.5282 15.8881 17.4824 16.1215C17.4367 16.3547 17.4093 16.5925 17.3901 16.8295C17.369 17.0893 17.3465 17.3515 17.3612 17.6106C17.3767 17.8853 17.4218 18.1602 17.4794 18.4298C17.5348 18.6888 17.6062 18.9471 17.7001 19.1947C17.8401 19.5644 18.05 19.8953 18.322 20.1905C18.5049 20.3889 18.7033 20.5637 18.9309 20.7081C19.1667 20.8578 19.4193 20.9649 19.6911 21.0388C20.0629 21.14 20.4396 21.1824 20.8209 21.1525C21.0304 21.1361 21.2368 21.0797 21.4437 21.0376C21.6931 20.9869 21.9142 20.8751 22.1286 20.7411C22.4888 20.516 22.7556 20.2105 22.9631 19.8482C23.1185 19.5772 23.2121 19.282 23.3046 18.9869C23.3232 18.9275 23.3385 18.8655 23.3421 18.804C23.3434 18.781 23.3117 18.746 23.2867 18.7343C23.2602 18.722 23.2233 18.7303 23.1909 18.7303C22.4288 18.7303 21.6667 18.7303 20.9046 18.7307C20.8624 18.7307 20.8199 18.7307 20.7677 18.7307C20.7655 18.6828 20.7621 18.6451 20.7621 18.6072C20.7616 18.0572 20.764 17.5071 20.7599 16.9571C20.759 16.8564 20.7871 16.8214 20.8932 16.8216C22.3887 16.8246 23.8842 16.8244 25.3797 16.8216C25.4779 16.8216 25.5102 16.8489 25.5102 16.9486C25.5076 18.9111 25.5083 20.8736 25.5081 22.8361C25.5081 22.8674 25.5048 22.8989 25.5027 22.9379C25.4677 22.9409 25.4367 22.946 25.4058 22.946C24.9421 22.9466 24.4783 22.9441 24.0145 22.9483C23.9077 22.9494 23.8851 22.897 23.8717 22.809C23.8357 22.5712 23.79 22.3348 23.7522 22.0972C23.7302 21.9585 23.7181 21.8182 23.6966 21.6794C23.6912 21.6447 23.6666 21.6129 23.6506 21.5799C23.6226 21.5976 23.5904 21.6108 23.5676 21.6336C23.3327 21.8659 23.1144 22.1172 22.8613 22.3282C22.585 22.5586 22.2744 22.7479 21.9252 22.8623C21.7196 22.9296 21.516 23.0035 21.3084 23.0637C21.2073 23.0931 21.0992 23.1018 20.9935 23.1127C20.7321 23.1398 20.4706 23.1666 20.2085 23.1845C20.1216 23.1904 20.0327 23.1666 19.9445 23.1598C19.7204 23.1425 19.493 23.1455 19.273 23.1067C18.9592 23.0516 18.6434 22.9939 18.3487 22.8631C18.0802 22.7439 17.7997 22.6447 17.5456 22.5007C17.0756 22.2345 16.68 21.874 16.3206 21.4741C15.9673 21.0808 15.692 20.6372 15.4727 20.1623C15.3575 19.9132 15.2775 19.6466 15.1996 19.3825C15.1191 19.1104 15.0602 18.8321 14.9923 18.5563C14.9906 18.5495 14.991 18.5423 14.9906 18.535C14.9729 18.2784 14.956 18.0216 14.9371 17.7652C14.9287 17.65 14.9047 17.535 14.9071 17.4205C14.9131 17.146 14.9189 16.8704 14.9468 16.5974C14.9761 16.3089 15.0145 16.0195 15.0786 15.7369C15.1601 15.3772 15.2673 15.0246 15.4067 14.6792C15.5646 14.2878 15.7654 13.9241 16.007 13.5798C16.2568 13.2237 16.5519 12.9064 16.8838 12.6247C17.2734 12.2942 17.6968 12.0138 18.1789 11.8291C18.4026 11.7435 18.627 11.6586 18.8561 11.5889C19.0101 11.5421 19.1725 11.5223 19.331 11.4908C19.6328 11.4309 19.9368 11.3994 20.2452 11.4009C20.4156 11.4018 20.5867 11.3666 20.756 11.3751C21.0617 11.3905 21.368 11.4137 21.6704 11.4578C21.9314 11.4959 22.1939 11.5478 22.4442 11.6288C22.8203 11.7503 23.1864 11.8998 23.5277 12.1062C23.9218 12.3447 24.2665 12.6362 24.5674 12.9803C24.815 13.2631 25.0145 13.5785 25.1567 13.9228C25.2641 14.1833 25.3407 14.4565 25.4214 14.7269C25.4647 14.8726 25.4876 15.0244 25.5245 15.195L25.5243 15.1952Z" fill="white"/>
<path d="M25.5243 15.1952C25.4494 15.1952 25.4071 15.1952 25.3646 15.1952C24.678 15.1941 23.9914 15.193 23.3048 15.192C23.085 15.1918 23.0878 15.1907 23.0082 14.9895C22.8549 14.6017 22.6312 14.2582 22.3136 13.9827C22.1001 13.7974 21.8594 13.6556 21.5837 13.5666C21.3419 13.4884 21.0996 13.4409 20.846 13.4375C20.7183 13.4358 20.5884 13.3985 20.4635 13.4117C20.2146 13.4382 19.9672 13.4816 19.7215 13.5299C19.2016 13.6326 18.7713 13.9045 18.4035 14.2669C18.0696 14.5962 17.8282 14.9937 17.666 15.4307C17.5834 15.6534 17.5282 15.8881 17.4824 16.1215C17.4367 16.3547 17.4093 16.5925 17.3901 16.8295C17.369 17.0893 17.3465 17.3515 17.3612 17.6106C17.3767 17.8853 17.4218 18.1602 17.4794 18.4298C17.5348 18.6888 17.6062 18.9471 17.7001 19.1947C17.8401 19.5644 18.05 19.8953 18.322 20.1905C18.5049 20.3889 18.7033 20.5637 18.9309 20.7081C19.1667 20.8578 19.4193 20.9649 19.6911 21.0388C20.0629 21.14 20.4396 21.1824 20.8209 21.1525C21.0304 21.1361 21.2368 21.0797 21.4437 21.0376C21.6931 20.9869 21.9142 20.8751 22.1286 20.7411C22.4888 20.516 22.7556 20.2105 22.9631 19.8482C23.1185 19.5772 23.2121 19.282 23.3046 18.9869C23.3232 18.9275 23.3385 18.8655 23.3421 18.804C23.3434 18.781 23.3117 18.746 23.2867 18.7343C23.2602 18.722 23.2233 18.7303 23.1909 18.7303C22.4288 18.7303 21.6667 18.7303 20.9046 18.7307C20.8624 18.7307 20.8199 18.7307 20.7677 18.7307C20.7655 18.6828 20.7621 18.6451 20.7621 18.6072C20.7616 18.0572 20.764 17.5071 20.7599 16.9571C20.759 16.8564 20.7871 16.8214 20.8932 16.8216C22.3887 16.8246 23.8842 16.8244 25.3797 16.8216C25.4779 16.8216 25.5102 16.8489 25.5102 16.9486C25.5076 18.9111 25.5083 20.8736 25.5081 22.8361C25.5081 22.8674 25.5048 22.8989 25.5027 22.9379C25.4677 22.9409 25.4367 22.946 25.4058 22.946C24.9421 22.9466 24.4783 22.9441 24.0145 22.9483C23.9077 22.9494 23.8851 22.897 23.8717 22.809C23.8357 22.5712 23.79 22.3348 23.7522 22.0972C23.7302 21.9585 23.7181 21.8182 23.6966 21.6794C23.6912 21.6447 23.6666 21.6129 23.6506 21.5799C23.6226 21.5976 23.5904 21.6108 23.5676 21.6336C23.3327 21.8659 23.1144 22.1172 22.8613 22.3282C22.585 22.5586 22.2744 22.7479 21.9252 22.8623C21.7196 22.9296 21.516 23.0035 21.3084 23.0637C21.2073 23.0931 21.0992 23.1018 20.9935 23.1127C20.7321 23.1398 20.4706 23.1666 20.2085 23.1845C20.1216 23.1904 20.0327 23.1666 19.9445 23.1598C19.7204 23.1425 19.493 23.1455 19.273 23.1067C18.9592 23.0516 18.6434 22.9939 18.3487 22.8631C18.0802 22.7439 17.7997 22.6447 17.5456 22.5007C17.0756 22.2345 16.68 21.874 16.3206 21.4741C15.9673 21.0808 15.692 20.6372 15.4727 20.1623C15.3575 19.9132 15.2775 19.6466 15.1996 19.3825C15.1191 19.1104 15.0602 18.8321 14.9923 18.5563C14.9906 18.5495 14.991 18.5423 14.9906 18.535C14.9729 18.2784 14.956 18.0216 14.9371 17.7652C14.9287 17.65 14.9047 17.535 14.9071 17.4205C14.9131 17.146 14.9189 16.8704 14.9468 16.5974C14.9761 16.3089 15.0145 16.0195 15.0786 15.7369C15.1601 15.3772 15.2673 15.0246 15.4067 14.6792C15.5646 14.2878 15.7654 13.9241 16.007 13.5798C16.2568 13.2237 16.5519 12.9064 16.8838 12.6247C17.2734 12.2942 17.6968 12.0138 18.1789 11.8291C18.4026 11.7435 18.627 11.6586 18.8561 11.5889C19.0101 11.5421 19.1725 11.5223 19.331 11.4908C19.6328 11.4309 19.9368 11.3994 20.2452 11.4009C20.4156 11.4018 20.5867 11.3666 20.756 11.3751C21.0617 11.3905 21.368 11.4137 21.6704 11.4578C21.9314 11.4959 22.1939 11.5478 22.4442 11.6288C22.8203 11.7503 23.1864 11.8998 23.5277 12.1062C23.9218 12.3447 24.2665 12.6362 24.5674 12.9803C24.815 13.2631 25.0145 13.5785 25.1567 13.9228C25.2641 14.1833 25.3407 14.4565 25.4214 14.7269C25.4647 14.8726 25.4876 15.0244 25.5245 15.195L25.5243 15.1952Z" fill="url(#paint2_linear_7016_2908)"/>
</g>
<path id="Vector_2" fill-rule="evenodd" clip-rule="evenodd" d="M46.1434 5.95346C45.568 6.06387 44.549 6.45568 43.879 6.8246C40.5544 8.65483 38.7377 12.4187 38.7305 17.4907C38.7256 20.844 39.5349 23.5411 41.1787 25.65C44.1403 29.4496 49.6411 29.8879 52.458 26.5483L53.2203 25.6444L53.4199 26.9489L53.6195 28.2531L55.028 28.3191L56.4366 28.385L56.3846 22.3724L56.3329 16.3597L52.3936 16.2989L48.4543 16.2383V18.1502V20.0624H50.5978H52.7414L52.6128 20.6795C52.0876 23.2004 50.3885 24.7748 48.1932 24.7748C46.2109 24.7748 44.4683 23.5826 43.5929 21.6276C42.6301 19.4776 42.5902 15.693 43.5053 13.3404C44.1813 11.603 45.1929 10.5407 46.6307 10.0585C49.0832 9.23604 51.402 10.4332 52.2066 12.9376C52.3158 13.2773 52.6078 13.3303 54.3767 13.3303H56.4204L56.306 12.601C56.243 12.1997 55.9905 11.349 55.7446 10.7104C54.3251 7.02117 50.4893 5.12093 46.1434 5.95346ZM60.5154 8.05388V10.1886H67.526H74.5364L74.4806 8.1129L74.4245 6.03717L67.47 5.97815L60.5154 5.91935V8.05388ZM78.8016 17.2573V28.3653H80.6471H82.4926L82.5438 20.6894L82.595 13.0136L86.5734 20.6894L90.5518 28.3653H92.458H94.3643V17.2573V6.14937H92.4215H90.4788L90.4275 13.6734L90.3763 21.1976L86.5829 13.6792L82.7895 6.16081L80.7955 6.15498L78.8016 6.14937V17.2573ZM61.7238 17.1979L61.7798 19.277H67.5186H73.2573V17.2573V15.2377L67.4626 15.1782L61.668 15.1188L61.7238 17.1979ZM60.5154 26.3457V28.3653H67.5186H74.5218V26.3457V24.326H67.5186H60.5154V26.3457Z" fill="#00ADEE"/>
</g>
<defs>
<linearGradient id="paint0_linear_7016_2908" x1="19.7173" y1="3.59961" x2="19.7173" y2="30.9596" gradientUnits="userSpaceOnUse">
<stop offset="0.165" stop-color="#00ADEE"/>
<stop offset="0.74" stop-color="#00B5B4"/>
</linearGradient>
<linearGradient id="paint1_linear_7016_2908" x1="19.7173" y1="3.59961" x2="19.7173" y2="30.9596" gradientUnits="userSpaceOnUse">
<stop offset="0.26" stop-color="#00B5B4"/>
<stop offset="0.835" stop-color="#00ADEE"/>
</linearGradient>
<linearGradient id="paint2_linear_7016_2908" x1="25.5245" y1="17.2796" x2="14.9069" y2="17.2796" gradientUnits="userSpaceOnUse">
<stop stop-color="#00ADEE"/>
<stop offset="1" stop-color="#00B5B4"/>
</linearGradient>
</defs>
</svg>
