<svg width="28" height="29" viewBox="0 0 28 29" fill="none" xmlns="http://www.w3.org/2000/svg">
<g id="Icon logo">
<g id="Vector">
<path d="M22.0985 3.37912C19.4168 2.0691 16.6207 1.73143 13.7359 2.44982C10.8856 3.15969 8.57708 4.75013 6.8326 7.15533C5.06603 9.59114 4.29945 12.3491 4.49876 15.3575C4.68285 18.1389 5.69872 20.5946 7.52173 22.6903C9.33636 24.7762 11.5829 26.1098 14.2658 26.6473C16.9755 27.1899 19.5816 26.8311 22.0753 25.6113C20.7981 26.6372 19.3821 27.4 17.8279 27.8631C13.8296 29.0547 10.0186 28.5885 6.47109 26.345C3.58844 24.522 1.61268 21.9249 0.641214 18.6144C-0.617747 14.3235 -0.0288159 10.2549 2.461 6.55758C4.6556 3.29891 7.7204 1.3212 11.5659 0.692414C15.4406 0.0590388 18.9513 0.998174 22.0985 3.37912Z" fill="url(#paint0_linear_6661_3646)"/>
<path d="M11.7421 24.5615C13.8907 25.1703 16.02 25.145 18.1304 24.3807C20.2112 23.6271 21.8813 22.32 23.143 20.4741C24.4166 18.6108 25.0462 16.5291 24.9731 14.2625C24.8622 10.832 23.4535 8.04495 20.7382 6.02245C18.0062 3.98728 14.9629 3.54902 11.7169 4.4465C15.4977 2.32748 20.8416 2.6963 24.4542 6.17421C28.6601 10.2232 28.8961 16.2636 26.3613 20.4289C24.8389 22.931 22.688 24.6167 19.9032 25.4201C17.0777 26.2353 14.3576 25.9101 11.7419 24.5615H11.7421Z" fill="url(#paint1_linear_6661_3646)"/>
<path d="M19.7721 12.3668C19.6977 12.3668 19.6557 12.3668 19.6134 12.3668C18.9309 12.3657 18.2485 12.3646 17.566 12.3635C17.3475 12.3633 17.3503 12.3622 17.2712 12.1563C17.1187 11.7594 16.8964 11.4079 16.5808 11.1259C16.3685 10.9363 16.1292 10.7912 15.8552 10.7001C15.6148 10.6201 15.374 10.5715 15.1219 10.568C14.9949 10.5663 14.8659 10.5282 14.7417 10.5417C14.4943 10.5687 14.2484 10.6131 14.0041 10.6626C13.4874 10.7677 13.0596 11.0459 12.6941 11.4169C12.3622 11.7538 12.1222 12.1606 11.961 12.6078C11.8789 12.8358 11.824 13.0759 11.7785 13.3148C11.7331 13.5534 11.7058 13.7968 11.6867 14.0394C11.6657 14.3053 11.6434 14.5735 11.658 14.8387C11.6735 15.1199 11.7183 15.4012 11.7755 15.6771C11.8306 15.9421 11.9016 16.2065 11.9949 16.4599C12.134 16.8382 12.3426 17.1769 12.613 17.4789C12.7948 17.682 12.9921 17.861 13.2183 18.0087C13.4527 18.1619 13.7037 18.2715 13.9739 18.3472C14.3436 18.4507 14.7179 18.494 15.097 18.4635C15.3052 18.4467 15.5104 18.389 15.716 18.3458C15.9639 18.294 16.1837 18.1796 16.3968 18.0425C16.7549 17.8121 17.0201 17.4994 17.2264 17.1287C17.3807 16.8513 17.4738 16.5493 17.5658 16.2472C17.5842 16.1864 17.5994 16.123 17.6031 16.06C17.6044 16.0365 17.5728 16.0007 17.548 15.9887C17.5216 15.9761 17.4849 15.9846 17.4528 15.9846C16.6952 15.9846 15.9377 15.9846 15.1802 15.985C15.1382 15.985 15.0959 15.985 15.044 15.985C15.0419 15.936 15.0385 15.8974 15.0385 15.8586C15.038 15.2957 15.0404 14.7328 15.0363 14.1699C15.0355 14.0668 15.0633 14.0311 15.1688 14.0313C16.6554 14.0344 18.1419 14.0342 19.6284 14.0313C19.726 14.0313 19.7582 14.0592 19.7582 14.1612C19.7556 16.1696 19.7562 18.178 19.756 20.1865C19.756 20.2185 19.7528 20.2507 19.7507 20.2906C19.7159 20.2937 19.685 20.2989 19.6544 20.2989C19.1934 20.2996 18.7324 20.2969 18.2714 20.3013C18.1653 20.3024 18.1428 20.2488 18.1295 20.1588C18.0937 19.9154 18.0482 19.6735 18.0107 19.4303C17.9888 19.2884 17.9768 19.1448 17.9554 19.0027C17.95 18.9672 17.9256 18.9347 17.9097 18.9009C17.8818 18.919 17.8499 18.9325 17.8271 18.9558C17.5936 19.1936 17.3767 19.4507 17.1251 19.6667C16.8505 19.9025 16.5417 20.0962 16.1946 20.2133C15.9903 20.2821 15.7878 20.3577 15.5816 20.4194C15.481 20.4495 15.3736 20.4584 15.2685 20.4695C15.0087 20.4972 14.7488 20.5247 14.4883 20.543C14.4019 20.5491 14.3135 20.5247 14.2258 20.5177C14.0031 20.5001 13.7771 20.5031 13.5584 20.4634C13.2464 20.407 12.9325 20.3479 12.6396 20.2141C12.3727 20.0921 12.0939 19.9905 11.8413 19.8432C11.3741 19.5708 10.9809 19.2019 10.6237 18.7926C10.2725 18.3901 9.99888 17.9361 9.78082 17.4502C9.66632 17.1952 9.58677 16.9223 9.50937 16.6521C9.42939 16.3736 9.37086 16.0888 9.30332 15.8066C9.3016 15.7996 9.30203 15.7922 9.3016 15.7848C9.28402 15.5222 9.2673 15.2593 9.24843 14.997C9.24007 14.8791 9.21627 14.7614 9.21863 14.6441C9.22463 14.3632 9.23042 14.0812 9.25808 13.8019C9.28724 13.5066 9.3254 13.2104 9.38908 12.9212C9.47013 12.5531 9.5767 12.1922 9.71521 11.8388C9.87216 11.4382 10.0718 11.066 10.3119 10.7136C10.5602 10.3492 10.8535 10.0245 11.1835 9.7362C11.5707 9.39798 11.9916 9.11097 12.4709 8.92203C12.6932 8.83442 12.9162 8.74747 13.1439 8.67621C13.297 8.62826 13.4585 8.608 13.616 8.57574C13.916 8.5145 14.2181 8.48225 14.5247 8.48378C14.6941 8.48465 14.8642 8.44869 15.0325 8.45741C15.3363 8.4731 15.6408 8.49685 15.9414 8.54196C16.2008 8.58097 16.4618 8.63415 16.7105 8.71696C17.0844 8.8414 17.4483 8.99438 17.7875 9.20555C18.1792 9.44963 18.5218 9.74797 18.821 10.1001C19.0671 10.3895 19.2654 10.7123 19.4067 11.0647C19.5135 11.3312 19.5896 11.6108 19.6698 11.8876C19.7129 12.0366 19.7356 12.192 19.7723 12.3666L19.7721 12.3668Z" fill="white"/>
<path d="M19.7721 12.3668C19.6977 12.3668 19.6557 12.3668 19.6134 12.3668C18.9309 12.3657 18.2485 12.3646 17.566 12.3635C17.3475 12.3633 17.3503 12.3622 17.2712 12.1563C17.1187 11.7594 16.8964 11.4079 16.5808 11.1259C16.3685 10.9363 16.1292 10.7912 15.8552 10.7001C15.6148 10.6201 15.374 10.5715 15.1219 10.568C14.9949 10.5663 14.8659 10.5282 14.7417 10.5417C14.4943 10.5687 14.2484 10.6131 14.0041 10.6626C13.4874 10.7677 13.0596 11.0459 12.6941 11.4169C12.3622 11.7538 12.1222 12.1606 11.961 12.6078C11.8789 12.8358 11.824 13.0759 11.7785 13.3148C11.7331 13.5534 11.7058 13.7968 11.6867 14.0394C11.6657 14.3053 11.6434 14.5735 11.658 14.8387C11.6735 15.1199 11.7183 15.4012 11.7755 15.6771C11.8306 15.9421 11.9016 16.2065 11.9949 16.4599C12.134 16.8382 12.3426 17.1769 12.613 17.4789C12.7948 17.682 12.9921 17.861 13.2183 18.0087C13.4527 18.1619 13.7037 18.2715 13.9739 18.3472C14.3436 18.4507 14.7179 18.494 15.097 18.4635C15.3052 18.4467 15.5104 18.389 15.716 18.3458C15.9639 18.294 16.1837 18.1796 16.3968 18.0425C16.7549 17.8121 17.0201 17.4994 17.2264 17.1287C17.3807 16.8513 17.4738 16.5493 17.5658 16.2472C17.5842 16.1864 17.5994 16.123 17.6031 16.06C17.6044 16.0365 17.5728 16.0007 17.548 15.9887C17.5216 15.9761 17.4849 15.9846 17.4528 15.9846C16.6952 15.9846 15.9377 15.9846 15.1802 15.985C15.1382 15.985 15.0959 15.985 15.044 15.985C15.0419 15.936 15.0385 15.8974 15.0385 15.8586C15.038 15.2957 15.0404 14.7328 15.0363 14.1699C15.0355 14.0668 15.0633 14.0311 15.1688 14.0313C16.6554 14.0344 18.1419 14.0342 19.6284 14.0313C19.726 14.0313 19.7582 14.0592 19.7582 14.1612C19.7556 16.1696 19.7562 18.178 19.756 20.1865C19.756 20.2185 19.7528 20.2507 19.7507 20.2906C19.7159 20.2937 19.685 20.2989 19.6544 20.2989C19.1934 20.2996 18.7324 20.2969 18.2714 20.3013C18.1653 20.3024 18.1428 20.2488 18.1295 20.1588C18.0937 19.9154 18.0482 19.6735 18.0107 19.4303C17.9888 19.2884 17.9768 19.1448 17.9554 19.0027C17.95 18.9672 17.9256 18.9347 17.9097 18.9009C17.8818 18.919 17.8499 18.9325 17.8271 18.9558C17.5936 19.1936 17.3767 19.4507 17.1251 19.6667C16.8505 19.9025 16.5417 20.0962 16.1946 20.2133C15.9903 20.2821 15.7878 20.3577 15.5816 20.4194C15.481 20.4495 15.3736 20.4584 15.2685 20.4695C15.0087 20.4972 14.7488 20.5247 14.4883 20.543C14.4019 20.5491 14.3135 20.5247 14.2258 20.5177C14.0031 20.5001 13.7771 20.5031 13.5584 20.4634C13.2464 20.407 12.9325 20.3479 12.6396 20.2141C12.3727 20.0921 12.0939 19.9905 11.8413 19.8432C11.3741 19.5708 10.9809 19.2019 10.6237 18.7926C10.2725 18.3901 9.99888 17.9361 9.78082 17.4502C9.66632 17.1952 9.58677 16.9223 9.50937 16.6521C9.42939 16.3736 9.37086 16.0888 9.30332 15.8066C9.3016 15.7996 9.30203 15.7922 9.3016 15.7848C9.28402 15.5222 9.2673 15.2593 9.24843 14.997C9.24007 14.8791 9.21627 14.7614 9.21863 14.6441C9.22463 14.3632 9.23042 14.0812 9.25808 13.8019C9.28724 13.5066 9.3254 13.2104 9.38908 12.9212C9.47013 12.5531 9.5767 12.1922 9.71521 11.8388C9.87216 11.4382 10.0718 11.066 10.3119 10.7136C10.5602 10.3492 10.8535 10.0245 11.1835 9.7362C11.5707 9.39798 11.9916 9.11097 12.4709 8.92203C12.6932 8.83442 12.9162 8.74747 13.1439 8.67621C13.297 8.62826 13.4585 8.608 13.616 8.57574C13.916 8.5145 14.2181 8.48225 14.5247 8.48378C14.6941 8.48465 14.8642 8.44869 15.0325 8.45741C15.3363 8.4731 15.6408 8.49685 15.9414 8.54196C16.2008 8.58097 16.4618 8.63415 16.7105 8.71696C17.0844 8.8414 17.4483 8.99438 17.7875 9.20555C18.1792 9.44963 18.5218 9.74797 18.821 10.1001C19.0671 10.3895 19.2654 10.7123 19.4067 11.0647C19.5135 11.3312 19.5896 11.6108 19.6698 11.8876C19.7129 12.0366 19.7356 12.192 19.7723 12.3666L19.7721 12.3668Z" fill="url(#paint2_linear_6661_3646)"/>
</g>
</g>
<defs>
<linearGradient id="paint0_linear_6661_3646" x1="14" y1="0.5" x2="14" y2="28.5" gradientUnits="userSpaceOnUse">
<stop offset="0.165" stop-color="#00ADEE"/>
<stop offset="0.74" stop-color="#00B5B4"/>
</linearGradient>
<linearGradient id="paint1_linear_6661_3646" x1="14" y1="0.5" x2="14" y2="28.5" gradientUnits="userSpaceOnUse">
<stop offset="0.26" stop-color="#00B5B4"/>
<stop offset="0.835" stop-color="#00ADEE"/>
</linearGradient>
<linearGradient id="paint2_linear_6661_3646" x1="19.7723" y1="14.5" x2="9.21846" y2="14.5" gradientUnits="userSpaceOnUse">
<stop stop-color="#00ADEE"/>
<stop offset="1" stop-color="#00B5B4"/>
</linearGradient>
</defs>
</svg>
