<svg width="59" height="91" viewBox="0 0 59 91" fill="none" xmlns="http://www.w3.org/2000/svg">
<g id="Logoipo">
<g id="Vector">
<path d="M1.89534 90.9595V88.1967H2.98316C3.19139 88.1967 3.3691 88.234 3.5163 88.3087C3.66439 88.3824 3.77703 88.4872 3.85422 88.623C3.93231 88.7579 3.97135 88.9166 3.97135 89.0992C3.97135 89.2827 3.93186 89.4405 3.85287 89.5727C3.77389 89.704 3.65946 89.8047 3.50957 89.8749C3.36057 89.945 3.18017 89.9801 2.96835 89.9801H2.24V89.5107H2.87411C2.9854 89.5107 3.07785 89.4954 3.15145 89.4648C3.22505 89.4342 3.2798 89.3883 3.3157 89.3272C3.3525 89.266 3.3709 89.19 3.3709 89.0992C3.3709 89.0075 3.3525 88.9301 3.3157 88.8672C3.2798 88.8042 3.2246 88.7565 3.1501 88.7242C3.0765 88.6909 2.98361 88.6743 2.87142 88.6743H2.47829V90.9595H1.89534ZM3.38436 89.7022L4.06963 90.9595H3.4261L2.75563 89.7022H3.38436Z" fill="#00ADEE"/>
<path d="M5.69866 90.0773V88.8874H6.27219V90.9595H5.72155V90.5831H5.70001C5.65334 90.7046 5.5757 90.8021 5.4671 90.8759C5.35939 90.9496 5.2279 90.9865 5.07263 90.9865C4.93441 90.9865 4.81279 90.955 4.70778 90.8921C4.60277 90.8291 4.52064 90.7396 4.46141 90.6236C4.40307 90.5076 4.37345 90.3686 4.37255 90.2068V88.8874H4.94608V90.1042C4.94697 90.2265 4.97973 90.3232 5.04436 90.3943C5.10898 90.4653 5.19559 90.5009 5.30419 90.5009C5.37331 90.5009 5.43793 90.4851 5.49806 90.4536C5.5582 90.4213 5.60667 90.3736 5.64346 90.3106C5.68116 90.2477 5.69956 90.1699 5.69866 90.0773Z" fill="#00ADEE"/>
<path d="M6.73094 90.9595V88.8874H7.27755V89.253H7.30178C7.34486 89.1316 7.41666 89.0358 7.51719 88.9656C7.61771 88.8955 7.73798 88.8604 7.878 88.8604C8.01981 88.8604 8.14053 88.8959 8.24016 88.967C8.33978 89.0371 8.4062 89.1325 8.43941 89.253H8.46095C8.50313 89.1343 8.57942 89.0394 8.68982 88.9683C8.80112 88.8964 8.93261 88.8604 9.08429 88.8604C9.27726 88.8604 9.43388 88.922 9.55415 89.0452C9.67532 89.1676 9.7359 89.3411 9.7359 89.566V90.9595H9.16372V89.6793C9.16372 89.5642 9.13321 89.4778 9.07217 89.4203C9.01114 89.3627 8.93485 89.3339 8.8433 89.3339C8.73919 89.3339 8.65796 89.3672 8.59962 89.4338C8.54128 89.4994 8.51211 89.5862 8.51211 89.6941V90.9595H7.95608V89.6671C7.95608 89.5655 7.92691 89.4846 7.86857 89.4243C7.81113 89.3641 7.73529 89.3339 7.64105 89.3339C7.57732 89.3339 7.51988 89.3501 7.46872 89.3825C7.41846 89.414 7.37852 89.4585 7.3489 89.5161C7.31928 89.5727 7.30447 89.6393 7.30447 89.7157V90.9595H6.73094Z" fill="#00ADEE"/>
<path d="M10.1997 90.9595V88.1967H10.7732V89.2355H10.7907C10.8159 89.1797 10.8522 89.123 10.8998 89.0655C10.9483 89.007 11.0111 88.9585 11.0883 88.9198C11.1664 88.8802 11.2633 88.8604 11.3791 88.8604C11.5299 88.8604 11.669 88.9 11.7964 88.9791C11.9239 89.0574 12.0257 89.1757 12.102 89.3339C12.1783 89.4913 12.2165 89.6887 12.2165 89.9262C12.2165 90.1573 12.1792 90.3525 12.1047 90.5117C12.0311 90.6699 11.9306 90.79 11.8032 90.8718C11.6766 90.9528 11.5348 90.9933 11.3777 90.9933C11.2664 90.9933 11.1717 90.9748 11.0937 90.9379C11.0165 90.9011 10.9532 90.8548 10.9038 90.799C10.8545 90.7423 10.8168 90.6852 10.7907 90.6277H10.7652V90.9595H10.1997ZM10.7611 89.9235C10.7611 90.0467 10.7782 90.1541 10.8123 90.2459C10.8464 90.3376 10.8957 90.4091 10.9604 90.4604C11.025 90.5107 11.1035 90.5359 11.196 90.5359C11.2893 90.5359 11.3683 90.5103 11.4329 90.459C11.4975 90.4069 11.5465 90.3349 11.5797 90.2432C11.6138 90.1506 11.6308 90.044 11.6308 89.9235C11.6308 89.8038 11.6142 89.6986 11.581 89.6078C11.5478 89.517 11.4989 89.4459 11.4343 89.3946C11.3696 89.3434 11.2902 89.3177 11.196 89.3177C11.1026 89.3177 11.0236 89.3425 10.959 89.3919C10.8953 89.4414 10.8464 89.5116 10.8123 89.6024C10.7782 89.6932 10.7611 89.8003 10.7611 89.9235Z" fill="#00ADEE"/>
<path d="M13.5335 91C13.3244 91 13.1435 90.9555 12.9909 90.8664C12.8393 90.7765 12.7221 90.6515 12.6396 90.4914C12.557 90.3304 12.5157 90.1438 12.5157 89.9316C12.5157 89.7175 12.557 89.5304 12.6396 89.3704C12.7221 89.2094 12.8393 89.0844 12.9909 88.9953C13.1435 88.9054 13.3244 88.8604 13.5335 88.8604C13.7426 88.8604 13.923 88.9054 14.0747 88.9953C14.2273 89.0844 14.3449 89.2094 14.4275 89.3704C14.51 89.5304 14.5513 89.7175 14.5513 89.9316C14.5513 90.1438 14.51 90.3304 14.4275 90.4914C14.3449 90.6515 14.2273 90.7765 14.0747 90.8664C13.923 90.9555 13.7426 91 13.5335 91ZM13.5362 90.5548C13.6313 90.5548 13.7108 90.5278 13.7745 90.4739C13.8382 90.419 13.8862 90.3444 13.9185 90.2499C13.9518 90.1555 13.9684 90.048 13.9684 89.9275C13.9684 89.807 13.9518 89.6995 13.9185 89.6051C13.8862 89.5107 13.8382 89.436 13.7745 89.3811C13.7108 89.3263 13.6313 89.2989 13.5362 89.2989C13.4402 89.2989 13.3594 89.3263 13.2939 89.3811C13.2292 89.436 13.1803 89.5107 13.1471 89.6051C13.1148 89.6995 13.0986 89.807 13.0986 89.9275C13.0986 90.048 13.1148 90.1555 13.1471 90.2499C13.1803 90.3444 13.2292 90.419 13.2939 90.4739C13.3594 90.5278 13.4402 90.5548 13.5362 90.5548Z" fill="#00ADEE"/>
<path d="M16.3914 90.9986C16.2594 90.9986 16.1419 90.9757 16.0386 90.9298C15.9354 90.8831 15.8538 90.8143 15.7936 90.7234C15.7344 90.6317 15.7048 90.5175 15.7048 90.3808C15.7048 90.2657 15.7259 90.169 15.768 90.0908C15.8102 90.0125 15.8677 89.9495 15.9404 89.9019C16.0131 89.8542 16.0956 89.8182 16.1881 89.794C16.2814 89.7697 16.3793 89.7526 16.4816 89.7427C16.6018 89.7301 16.6988 89.7184 16.7724 89.7076C16.846 89.6959 16.8994 89.6788 16.9326 89.6564C16.9658 89.6339 16.9824 89.6006 16.9824 89.5565V89.5484C16.9824 89.463 16.9555 89.3969 16.9016 89.3501C16.8487 89.3034 16.7733 89.28 16.6754 89.28C16.5722 89.28 16.4901 89.3029 16.4291 89.3488C16.368 89.3937 16.3277 89.4504 16.3079 89.5188L15.7775 89.4756C15.8044 89.3497 15.8573 89.2409 15.9363 89.1491C16.0153 89.0565 16.1172 88.9854 16.2419 88.936C16.3676 88.8856 16.513 88.8604 16.6781 88.8604C16.793 88.8604 16.903 88.8739 17.008 88.9009C17.1139 88.9279 17.2077 88.9697 17.2894 89.0264C17.3719 89.083 17.437 89.1559 17.4846 89.2449C17.5321 89.333 17.5559 89.4387 17.5559 89.5619V90.9595H17.012V90.6722H16.9959C16.9627 90.7369 16.9182 90.794 16.8626 90.8435C16.8069 90.8921 16.7401 90.9303 16.662 90.9582C16.5839 90.9852 16.4937 90.9986 16.3914 90.9986ZM16.5556 90.602C16.64 90.602 16.7145 90.5854 16.7791 90.5521C16.8437 90.5179 16.8944 90.4721 16.9312 90.4145C16.968 90.357 16.9864 90.2918 16.9864 90.2189V89.999C16.9685 90.0107 16.9438 90.0215 16.9124 90.0314C16.8819 90.0404 16.8473 90.0489 16.8087 90.057C16.7701 90.0642 16.7315 90.071 16.6929 90.0773C16.6544 90.0826 16.6194 90.0876 16.5879 90.0921C16.5206 90.102 16.4618 90.1177 16.4116 90.1393C16.3613 90.1609 16.3223 90.1901 16.2944 90.227C16.2666 90.263 16.2527 90.3079 16.2527 90.3619C16.2527 90.4401 16.281 90.5 16.3375 90.5413C16.395 90.5818 16.4677 90.602 16.5556 90.602Z" fill="#00ADEE"/>
<path d="M19.9783 88.8874V89.3191H18.7329V88.8874H19.9783ZM19.0157 88.391H19.5892V90.3228C19.5892 90.3758 19.5973 90.4172 19.6134 90.4469C19.6296 90.4757 19.652 90.4959 19.6807 90.5076C19.7104 90.5193 19.7445 90.5251 19.7831 90.5251C19.81 90.5251 19.8369 90.5229 19.8638 90.5184C19.8908 90.513 19.9114 90.5089 19.9258 90.5062L20.016 90.9339C19.9873 90.9429 19.9469 90.9532 19.8948 90.9649C19.8427 90.9775 19.7795 90.9852 19.705 90.9879C19.5668 90.9933 19.4456 90.9748 19.3415 90.9325C19.2383 90.8903 19.1579 90.8246 19.1005 90.7356C19.043 90.6466 19.0148 90.5341 19.0157 90.3983V88.391Z" fill="#00ADEE"/>
<path d="M21.678 90.0773V88.8874H22.2515V90.9595H21.7009V90.5831H21.6793C21.6327 90.7046 21.555 90.8021 21.4464 90.8759C21.3387 90.9496 21.2072 90.9865 21.052 90.9865C20.9137 90.9865 20.7921 90.955 20.6871 90.8921C20.5821 90.8291 20.5 90.7396 20.4407 90.6236C20.3824 90.5076 20.3528 90.3686 20.3519 90.2068V88.8874H20.9254V90.1042C20.9263 90.2265 20.9591 90.3232 21.0237 90.3943C21.0883 90.4653 21.1749 90.5009 21.2835 90.5009C21.3526 90.5009 21.4173 90.4851 21.4774 90.4536C21.5375 90.4213 21.586 90.3736 21.6228 90.3106C21.6605 90.2477 21.6789 90.1699 21.678 90.0773Z" fill="#00ADEE"/>
<path d="M23.5985 90.9595V88.1967H24.1815V90.4779H25.3635V90.9595H23.5985Z" fill="#00ADEE"/>
<path d="M25.7388 90.9595V88.8874H26.3123V90.9595H25.7388ZM26.0269 88.6203C25.9416 88.6203 25.8685 88.592 25.8075 88.5353C25.7473 88.4777 25.7173 88.4089 25.7173 88.3289C25.7173 88.2498 25.7473 88.1819 25.8075 88.1252C25.8685 88.0676 25.9416 88.0389 26.0269 88.0389C26.1122 88.0389 26.1849 88.0676 26.245 88.1252C26.306 88.1819 26.3366 88.2498 26.3366 88.3289C26.3366 88.4089 26.306 88.4777 26.245 88.5353C26.1849 88.592 26.1122 88.6203 26.0269 88.6203Z" fill="#00ADEE"/>
<path d="M26.7825 90.9595V88.1967H27.356V89.2355H27.3735C27.3987 89.1797 27.435 89.123 27.4826 89.0655C27.5311 89.007 27.5939 88.9585 27.6711 88.9198C27.7492 88.8802 27.8461 88.8604 27.9619 88.8604C28.1127 88.8604 28.2518 88.9 28.3792 88.9791C28.5067 89.0574 28.6086 89.1757 28.6849 89.3339C28.7611 89.4913 28.7993 89.6887 28.7993 89.9262C28.7993 90.1573 28.762 90.3525 28.6875 90.5117C28.6139 90.6699 28.5134 90.79 28.386 90.8718C28.2594 90.9528 28.1176 90.9933 27.9605 90.9933C27.8492 90.9933 27.7546 90.9748 27.6765 90.9379C27.5993 90.9011 27.536 90.8548 27.4866 90.799C27.4373 90.7423 27.3996 90.6852 27.3735 90.6277H27.348V90.9595H26.7825ZM27.3439 89.9235C27.3439 90.0467 27.361 90.1541 27.3951 90.2459C27.4292 90.3376 27.4786 90.4091 27.5432 90.4604C27.6078 90.5107 27.6863 90.5359 27.7788 90.5359C27.8721 90.5359 27.9511 90.5103 28.0157 90.459C28.0804 90.4069 28.1293 90.3349 28.1625 90.2432C28.1966 90.1506 28.2136 90.044 28.2136 89.9235C28.2136 89.8038 28.197 89.6986 28.1638 89.6078C28.1306 89.517 28.0817 89.4459 28.0171 89.3946C27.9525 89.3434 27.873 89.3177 27.7788 89.3177C27.6854 89.3177 27.6065 89.3425 27.5418 89.3919C27.4781 89.4414 27.4292 89.5116 27.3951 89.6024C27.361 89.6932 27.3439 89.8003 27.3439 89.9235Z" fill="#00ADEE"/>
<path d="M30.1244 91C29.9117 91 29.7286 90.9568 29.5751 90.8705C29.4225 90.7833 29.3049 90.66 29.2224 90.5009C29.1398 90.3408 29.0985 90.1515 29.0985 89.9329C29.0985 89.7198 29.1398 89.5327 29.2224 89.3717C29.3049 89.2107 29.4212 89.0853 29.5711 88.9953C29.7218 88.9054 29.8987 88.8604 30.1015 88.8604C30.2379 88.8604 30.3649 88.8825 30.4825 88.9265C30.601 88.9697 30.7042 89.0349 30.7922 89.1221C30.881 89.2094 30.9501 89.3191 30.9995 89.4513C31.0489 89.5826 31.0735 89.7364 31.0735 89.9127V90.0705H29.3274V89.7144H30.5337C30.5337 89.6316 30.5157 89.5583 30.4798 89.4945C30.4439 89.4306 30.3941 89.3807 30.3304 89.3447C30.2675 89.3079 30.1944 89.2894 30.1109 89.2894C30.0239 89.2894 29.9467 89.3097 29.8794 89.3501C29.8129 89.3897 29.7609 89.4432 29.7232 89.5107C29.6855 89.5772 29.6662 89.6514 29.6653 89.7332V90.0719C29.6653 90.1744 29.6841 90.263 29.7218 90.3376C29.7604 90.4123 29.8147 90.4698 29.8847 90.5103C29.9548 90.5508 30.0378 90.571 30.1338 90.571C30.1975 90.571 30.2559 90.562 30.3088 90.544C30.3618 90.526 30.4071 90.4991 30.4448 90.4631C30.4825 90.4271 30.5112 90.383 30.531 90.3309L31.0614 90.366C31.0345 90.4937 30.9793 90.6052 30.8958 90.7005C30.8133 90.7949 30.7064 90.8687 30.5754 90.9218C30.4453 90.9739 30.2949 91 30.1244 91Z" fill="#00ADEE"/>
<path d="M31.4478 90.9595V88.8874H32.0038V89.2489H32.0254C32.0631 89.1203 32.1264 89.0232 32.2152 88.9576C32.3041 88.891 32.4064 88.8577 32.5222 88.8577C32.5509 88.8577 32.5818 88.8595 32.6151 88.8631C32.6483 88.8667 32.6774 88.8717 32.7026 88.878V89.3879C32.6756 89.3798 32.6384 89.3726 32.5908 89.3663C32.5433 89.36 32.4997 89.3569 32.4602 89.3569C32.3759 89.3569 32.3005 89.3753 32.2341 89.4122C32.1685 89.4482 32.1165 89.4985 32.0779 89.5633C32.0402 89.628 32.0213 89.7027 32.0213 89.7872V90.9595H31.4478Z" fill="#00ADEE"/>
<path d="M34.2027 88.8874V89.3191H32.9574V88.8874H34.2027ZM33.2401 88.391H33.8136V90.3228C33.8136 90.3758 33.8217 90.4172 33.8378 90.4469C33.854 90.4757 33.8764 90.4959 33.9052 90.5076C33.9348 90.5193 33.9689 90.5251 34.0075 90.5251C34.0344 90.5251 34.0613 90.5229 34.0883 90.5184C34.1152 90.513 34.1358 90.5089 34.1502 90.5062L34.2404 90.9339C34.2117 90.9429 34.1713 90.9532 34.1192 90.9649C34.0672 90.9775 34.0039 90.9852 33.9294 90.9879C33.7912 90.9933 33.67 90.9748 33.5659 90.9325C33.4627 90.8903 33.3823 90.8246 33.3249 90.7356C33.2675 90.6466 33.2392 90.5341 33.2401 90.3983V88.391Z" fill="#00ADEE"/>
<path d="M35.166 90.9986C35.034 90.9986 34.9165 90.9757 34.8132 90.9298C34.71 90.8831 34.6283 90.8143 34.5682 90.7234C34.509 90.6317 34.4794 90.5175 34.4794 90.3808C34.4794 90.2657 34.5005 90.169 34.5426 90.0908C34.5848 90.0125 34.6423 89.9495 34.715 89.9019C34.7877 89.8542 34.8702 89.8182 34.9627 89.794C35.056 89.7697 35.1539 89.7526 35.2562 89.7427C35.3764 89.7301 35.4734 89.7184 35.547 89.7076C35.6206 89.6959 35.674 89.6788 35.7072 89.6564C35.7404 89.6339 35.757 89.6006 35.757 89.5565V89.5484C35.757 89.463 35.7301 89.3969 35.6762 89.3501C35.6233 89.3034 35.5479 89.28 35.45 89.28C35.3468 89.28 35.2647 89.3029 35.2037 89.3488C35.1426 89.3937 35.1023 89.4504 35.0825 89.5188L34.5521 89.4756C34.579 89.3497 34.6319 89.2409 34.7109 89.1491C34.7899 89.0565 34.8918 88.9854 35.0165 88.936C35.1422 88.8856 35.2876 88.8604 35.4527 88.8604C35.5676 88.8604 35.6776 88.8739 35.7826 88.9009C35.8885 88.9279 35.9823 88.9697 36.064 89.0264C36.1465 89.083 36.2116 89.1559 36.2592 89.2449C36.3067 89.333 36.3305 89.4387 36.3305 89.5619V90.9595H35.7866V90.6722H35.7705C35.7373 90.7369 35.6928 90.794 35.6372 90.8435C35.5815 90.8921 35.5147 90.9303 35.4366 90.9582C35.3585 90.9852 35.2683 90.9986 35.166 90.9986ZM35.3302 90.602C35.4146 90.602 35.4891 90.5854 35.5537 90.5521C35.6183 90.5179 35.669 90.4721 35.7058 90.4145C35.7426 90.357 35.761 90.2918 35.761 90.2189V89.999C35.7431 90.0107 35.7184 90.0215 35.687 90.0314C35.6565 90.0404 35.6219 90.0489 35.5833 90.057C35.5447 90.0642 35.5061 90.071 35.4675 90.0773C35.429 90.0826 35.394 90.0876 35.3625 90.0921C35.2952 90.102 35.2364 90.1177 35.1862 90.1393C35.1359 90.1609 35.0969 90.1901 35.069 90.227C35.0412 90.263 35.0273 90.3079 35.0273 90.3619C35.0273 90.4401 35.0556 90.5 35.1121 90.5413C35.1696 90.5818 35.2423 90.602 35.3302 90.602Z" fill="#00ADEE"/>
<path d="M37.5375 90.9933C37.3804 90.9933 37.2382 90.9528 37.1107 90.8718C36.9842 90.79 36.8836 90.6699 36.8091 90.5117C36.7355 90.3525 36.6987 90.1573 36.6987 89.9262C36.6987 89.6887 36.7369 89.4913 36.8132 89.3339C36.8895 89.1757 36.9909 89.0574 37.1174 88.9791C37.2449 88.9 37.3845 88.8604 37.5362 88.8604C37.6519 88.8604 37.7484 88.8802 37.8256 88.9198C37.9037 88.9585 37.9665 89.007 38.0141 89.0655C38.0626 89.123 38.0994 89.1797 38.1245 89.2355H38.142V88.1967H38.7142V90.9595H38.1487V90.6277H38.1245C38.0976 90.6852 38.0594 90.7423 38.0101 90.799C37.9616 90.8548 37.8983 90.9011 37.8202 90.9379C37.743 90.9748 37.6488 90.9933 37.5375 90.9933ZM37.7192 90.5359C37.8117 90.5359 37.8898 90.5107 37.9535 90.4604C38.0181 90.4091 38.0675 90.3376 38.1016 90.2459C38.1366 90.1541 38.1541 90.0467 38.1541 89.9235C38.1541 89.8003 38.1371 89.6932 38.1029 89.6024C38.0688 89.5116 38.0195 89.4414 37.9549 89.3919C37.8902 89.3425 37.8117 89.3177 37.7192 89.3177C37.625 89.3177 37.5456 89.3434 37.481 89.3946C37.4163 89.4459 37.3674 89.517 37.3342 89.6078C37.301 89.6986 37.2844 89.8038 37.2844 89.9235C37.2844 90.044 37.301 90.1506 37.3342 90.2432C37.3683 90.3349 37.4172 90.4069 37.481 90.459C37.5456 90.5103 37.625 90.5359 37.7192 90.5359Z" fill="#00ADEE"/>
<path d="M40.0739 90.9595V88.1967H41.8995V88.6783H40.6569V89.3366H41.7784V89.8182H40.6569V90.9595H40.0739Z" fill="#00ADEE"/>
<path d="M42.2809 90.9595V88.8874H42.8544V90.9595H42.2809ZM42.569 88.6203C42.4837 88.6203 42.4106 88.592 42.3495 88.5353C42.2894 88.4777 42.2593 88.4089 42.2593 88.3289C42.2593 88.2498 42.2894 88.1819 42.3495 88.1252C42.4106 88.0676 42.4837 88.0389 42.569 88.0389C42.6543 88.0389 42.727 88.0676 42.7871 88.1252C42.8481 88.1819 42.8786 88.2498 42.8786 88.3289C42.8786 88.4089 42.8481 88.4777 42.7871 88.5353C42.727 88.592 42.6543 88.6203 42.569 88.6203Z" fill="#00ADEE"/>
<path d="M43.8874 89.7616V90.9595H43.3138V88.8874H43.8604V89.253H43.8847C43.9304 89.1325 44.0072 89.0371 44.1149 88.967C44.2226 88.8959 44.3532 88.8604 44.5067 88.8604C44.6503 88.8604 44.7755 88.8919 44.8823 88.9548C44.9891 89.0178 45.0721 89.1077 45.1313 89.2247C45.1906 89.3407 45.2202 89.4792 45.2202 89.6402V90.9595H44.6467V89.7427C44.6476 89.6159 44.6153 89.517 44.5497 89.4459C44.4842 89.374 44.394 89.338 44.2791 89.338C44.2019 89.338 44.1337 89.3546 44.0745 89.3879C44.0162 89.4212 43.9704 89.4697 43.9372 89.5336C43.9049 89.5965 43.8883 89.6725 43.8874 89.7616Z" fill="#00ADEE"/>
<path d="M46.2619 90.9986C46.13 90.9986 46.0124 90.9757 45.9092 90.9298C45.806 90.8831 45.7243 90.8143 45.6642 90.7234C45.6049 90.6317 45.5753 90.5175 45.5753 90.3808C45.5753 90.2657 45.5964 90.169 45.6386 90.0908C45.6808 90.0125 45.7382 89.9495 45.8109 89.9019C45.8836 89.8542 45.9662 89.8182 46.0586 89.794C46.152 89.7697 46.2498 89.7526 46.3521 89.7427C46.4724 89.7301 46.5693 89.7184 46.6429 89.7076C46.7165 89.6959 46.7699 89.6788 46.8031 89.6564C46.8363 89.6339 46.8529 89.6006 46.8529 89.5565V89.5484C46.8529 89.463 46.826 89.3969 46.7722 89.3501C46.7192 89.3034 46.6438 89.28 46.546 89.28C46.4428 89.28 46.3606 89.3029 46.2996 89.3488C46.2386 89.3937 46.1982 89.4504 46.1784 89.5188L45.648 89.4756C45.6749 89.3497 45.7279 89.2409 45.8069 89.1491C45.8858 89.0565 45.9877 88.9854 46.1125 88.936C46.2381 88.8856 46.3835 88.8604 46.5487 88.8604C46.6636 88.8604 46.7735 88.8739 46.8785 88.9009C46.9844 88.9279 47.0782 88.9697 47.1599 89.0264C47.2425 89.083 47.3075 89.1559 47.3551 89.2449C47.4027 89.333 47.4265 89.4387 47.4265 89.5619V90.9595H46.8826V90.6722H46.8664C46.8332 90.7369 46.7888 90.794 46.7331 90.8435C46.6775 90.8921 46.6106 90.9303 46.5325 90.9582C46.4544 90.9852 46.3642 90.9986 46.2619 90.9986ZM46.4262 90.602C46.5105 90.602 46.585 90.5854 46.6496 90.5521C46.7143 90.5179 46.765 90.4721 46.8018 90.4145C46.8386 90.357 46.857 90.2918 46.857 90.2189V89.999C46.839 90.0107 46.8143 90.0215 46.7829 90.0314C46.7524 90.0404 46.7179 90.0489 46.6793 90.057C46.6407 90.0642 46.6021 90.071 46.5635 90.0773C46.5249 90.0826 46.4899 90.0876 46.4585 90.0921C46.3912 90.102 46.3324 90.1177 46.2821 90.1393C46.2318 90.1609 46.1928 90.1901 46.165 90.227C46.1371 90.263 46.1232 90.3079 46.1232 90.3619C46.1232 90.4401 46.1515 90.5 46.2081 90.5413C46.2655 90.5818 46.3382 90.602 46.4262 90.602Z" fill="#00ADEE"/>
<path d="M48.4449 89.7616V90.9595H47.8714V88.8874H48.418V89.253H48.4423C48.488 89.1325 48.5648 89.0371 48.6725 88.967C48.7802 88.8959 48.9108 88.8604 49.0643 88.8604C49.2079 88.8604 49.3331 88.8919 49.4399 88.9548C49.5467 89.0178 49.6297 89.1077 49.6889 89.2247C49.7482 89.3407 49.7778 89.4792 49.7778 89.6402V90.9595H49.2043V89.7427C49.2052 89.6159 49.1728 89.517 49.1073 89.4459C49.0418 89.374 48.9516 89.338 48.8367 89.338C48.7595 89.338 48.6913 89.3546 48.6321 89.3879C48.5737 89.4212 48.528 89.4697 48.4948 89.5336C48.4625 89.5965 48.4458 89.6725 48.4449 89.7616Z" fill="#00ADEE"/>
<path d="M51.1642 91C50.9523 91 50.7701 90.955 50.6176 90.8651C50.4659 90.7743 50.3492 90.6483 50.2675 90.4874C50.1867 90.3264 50.1463 90.1411 50.1463 89.9316C50.1463 89.7193 50.1872 89.5331 50.2689 89.3731C50.3514 89.2121 50.4686 89.0866 50.6202 88.9967C50.7719 88.9058 50.9523 88.8604 51.1615 88.8604C51.3419 88.8604 51.4998 88.8932 51.6354 88.9589C51.7709 89.0246 51.8781 89.1167 51.9571 89.2355C52.0361 89.3542 52.0796 89.4936 52.0877 89.6537H51.5465C51.5312 89.5502 51.4909 89.467 51.4253 89.4041C51.3607 89.3402 51.2759 89.3083 51.1709 89.3083C51.082 89.3083 51.0044 89.3326 50.938 89.3811C50.8725 89.4288 50.8213 89.4985 50.7845 89.5902C50.7477 89.682 50.7293 89.7931 50.7293 89.9235C50.7293 90.0557 50.7472 90.1681 50.7831 90.2607C50.8199 90.3534 50.8716 90.424 50.938 90.4725C51.0044 90.5211 51.082 90.5454 51.1709 90.5454C51.2364 90.5454 51.2952 90.5319 51.3472 90.5049C51.4002 90.4779 51.4437 90.4388 51.4778 90.3875C51.5128 90.3354 51.5357 90.2729 51.5465 90.2H52.0877C52.0787 90.3583 52.0357 90.4977 51.9585 90.6182C51.8822 90.7378 51.7767 90.8314 51.6421 90.8988C51.5075 90.9663 51.3481 91 51.1642 91Z" fill="#00ADEE"/>
<path d="M52.4549 90.9595V88.8874H53.0285V90.9595H52.4549ZM52.743 88.6203C52.6578 88.6203 52.5846 88.592 52.5236 88.5353C52.4635 88.4777 52.4334 88.4089 52.4334 88.3289C52.4334 88.2498 52.4635 88.1819 52.5236 88.1252C52.5846 88.0676 52.6578 88.0389 52.743 88.0389C52.8283 88.0389 52.901 88.0676 52.9611 88.1252C53.0222 88.1819 53.0527 88.2498 53.0527 88.3289C53.0527 88.4089 53.0222 88.4777 52.9611 88.5353C52.901 88.592 52.8283 88.6203 52.743 88.6203Z" fill="#00ADEE"/>
<path d="M54.4303 91C54.2176 91 54.0345 90.9568 53.881 90.8705C53.7284 90.7833 53.6108 90.66 53.5283 90.5009C53.4457 90.3408 53.4044 90.1515 53.4044 89.9329C53.4044 89.7198 53.4457 89.5327 53.5283 89.3717C53.6108 89.2107 53.7271 89.0853 53.877 88.9953C54.0277 88.9054 54.2046 88.8604 54.4074 88.8604C54.5438 88.8604 54.6708 88.8825 54.7884 88.9265C54.9069 88.9697 55.0101 89.0349 55.0981 89.1221C55.1869 89.2094 55.256 89.3191 55.3054 89.4513C55.3548 89.5826 55.3794 89.7364 55.3794 89.9127V90.0705H53.6333V89.7144H54.8396C54.8396 89.6316 54.8216 89.5583 54.7857 89.4945C54.7498 89.4306 54.7 89.3807 54.6363 89.3447C54.5735 89.3079 54.5003 89.2894 54.4168 89.2894C54.3298 89.2894 54.2526 89.3097 54.1853 89.3501C54.1189 89.3897 54.0668 89.4432 54.0291 89.5107C53.9914 89.5772 53.9721 89.6514 53.9712 89.7332V90.0719C53.9712 90.1744 53.9901 90.263 54.0277 90.3376C54.0663 90.4123 54.1206 90.4698 54.1907 90.5103C54.2607 90.5508 54.3437 90.571 54.4397 90.571C54.5034 90.571 54.5618 90.562 54.6147 90.544C54.6677 90.526 54.713 90.4991 54.7507 90.4631C54.7884 90.4271 54.8171 90.383 54.8369 90.3309L55.3673 90.366C55.3404 90.4937 55.2852 90.6052 55.2017 90.7005C55.1192 90.7949 55.0124 90.8687 54.8813 90.9218C54.7512 90.9739 54.6008 91 54.4303 91Z" fill="#00ADEE"/>
<path d="M55.7537 90.9595V88.8874H56.3097V89.2489H56.3313C56.369 89.1203 56.4323 89.0232 56.5211 88.9576C56.61 88.891 56.7123 88.8577 56.8281 88.8577C56.8568 88.8577 56.8878 88.8595 56.921 88.8631C56.9542 88.8667 56.9833 88.8717 57.0085 88.878V89.3879C56.9815 89.3798 56.9443 89.3726 56.8967 89.3663C56.8492 89.36 56.8056 89.3569 56.7661 89.3569C56.6818 89.3569 56.6064 89.3753 56.54 89.4122C56.4744 89.4482 56.4224 89.4985 56.3838 89.5633C56.3461 89.628 56.3272 89.7027 56.3272 89.7872V90.9595H55.7537Z" fill="#00ADEE"/>
<path d="M57.8354 90.9986C57.7035 90.9986 57.5859 90.9757 57.4827 90.9298C57.3795 90.8831 57.2978 90.8143 57.2377 90.7234C57.1784 90.6317 57.1488 90.5175 57.1488 90.3808C57.1488 90.2657 57.1699 90.169 57.2121 90.0908C57.2543 90.0125 57.3117 89.9495 57.3844 89.9019C57.4571 89.8542 57.5397 89.8182 57.6322 89.794C57.7255 89.7697 57.8233 89.7526 57.9256 89.7427C58.0459 89.7301 58.1429 89.7184 58.2165 89.7076C58.2901 89.6959 58.3434 89.6788 58.3767 89.6564C58.4099 89.6339 58.4265 89.6006 58.4265 89.5565V89.5484C58.4265 89.463 58.3995 89.3969 58.3457 89.3501C58.2927 89.3034 58.2174 89.28 58.1195 89.28C58.0163 89.28 57.9342 89.3029 57.8731 89.3488C57.8121 89.3937 57.7717 89.4504 57.752 89.5188L57.2215 89.4756C57.2485 89.3497 57.3014 89.2409 57.3804 89.1491C57.4594 89.0565 57.5612 88.9854 57.686 88.936C57.8117 88.8856 57.9571 88.8604 58.1222 88.8604C58.2371 88.8604 58.347 88.8739 58.4521 88.9009C58.558 88.9279 58.6518 88.9697 58.7334 89.0264C58.816 89.083 58.8811 89.1559 58.9286 89.2449C58.9762 89.333 59 89.4387 59 89.5619V90.9595H58.4561V90.6722H58.4399C58.4067 90.7369 58.3623 90.794 58.3067 90.8435C58.251 90.8921 58.1841 90.9303 58.1061 90.9582C58.028 90.9852 57.9378 90.9986 57.8354 90.9986ZM57.9997 90.602C58.0841 90.602 58.1586 90.5854 58.2232 90.5521C58.2878 90.5179 58.3385 90.4721 58.3753 90.4145C58.4121 90.357 58.4305 90.2918 58.4305 90.2189V89.999C58.4126 90.0107 58.3879 90.0215 58.3565 90.0314C58.326 90.0404 58.2914 90.0489 58.2528 90.057C58.2142 90.0642 58.1756 90.071 58.137 90.0773C58.0984 90.0826 58.0634 90.0876 58.032 90.0921C57.9647 90.102 57.9059 90.1177 57.8556 90.1393C57.8054 90.1609 57.7663 90.1901 57.7385 90.227C57.7107 90.263 57.6968 90.3079 57.6968 90.3619C57.6968 90.4401 57.725 90.5 57.7816 90.5413C57.839 90.5818 57.9117 90.602 57.9997 90.602Z" fill="#00ADEE"/>
<path fill-rule="evenodd" clip-rule="evenodd" d="M8.8913 62.5051C8.8913 62.5316 8.71524 62.5493 8.45114 62.5493C8.18704 62.5493 8.01098 62.5669 8.01098 62.5934C8.01098 62.618 7.89358 62.6376 7.74688 62.6376C7.60017 62.6376 7.48278 62.6572 7.48278 62.6818C7.48278 62.7061 7.40355 62.726 7.30671 62.726C7.20988 62.726 7.13065 62.7458 7.13065 62.7701C7.13065 62.7944 7.03161 62.8143 6.91057 62.8143C6.78952 62.8143 6.69049 62.8342 6.69049 62.8585C6.69049 62.8828 6.63106 62.9027 6.55844 62.9027C6.48581 62.9027 6.42639 62.9225 6.42639 62.9468C6.42639 62.9711 6.36696 62.991 6.29434 62.991C6.22171 62.991 6.16229 63.0109 6.16229 63.0352C6.16229 63.0595 6.12267 63.0793 6.07426 63.0793C6.02584 63.0793 5.98622 63.0992 5.98622 63.1235C5.98622 63.1478 5.9268 63.1677 5.85417 63.1677C5.78155 63.1677 5.72213 63.1876 5.72213 63.2119C5.72213 63.2362 5.68251 63.256 5.63409 63.256C5.58567 63.256 5.54606 63.2759 5.54606 63.3002C5.54606 63.3245 5.50645 63.3444 5.45803 63.3444C5.40961 63.3444 5.36999 63.3643 5.36999 63.3886C5.36999 63.4129 5.31057 63.4327 5.23795 63.4327C5.16532 63.4327 5.1059 63.4526 5.1059 63.4769C5.1059 63.5012 5.07064 63.5211 5.02759 63.5211C4.9845 63.5211 4.92072 63.5608 4.88581 63.6094C4.85091 63.658 4.78713 63.6978 4.74404 63.6978C4.70099 63.6978 4.66573 63.7177 4.66573 63.7419C4.66573 63.7662 4.63048 63.7861 4.58743 63.7861C4.54434 63.7861 4.48056 63.8259 4.44565 63.8745C4.41075 63.9231 4.34697 63.9628 4.30387 63.9628C4.26083 63.9628 4.22557 63.9827 4.22557 64.007C4.22557 64.0313 4.19432 64.0512 4.15611 64.0512C4.11786 64.0512 4.01051 64.1307 3.91745 64.2279C3.8244 64.325 3.72497 64.4045 3.69649 64.4045C3.66797 64.4045 3.58914 64.4642 3.52131 64.5371C3.45348 64.61 3.37592 64.6696 3.34898 64.6696C3.28595 64.6696 2.55295 65.4038 2.55295 65.467C2.55295 65.4932 2.45391 65.6114 2.33287 65.7297C2.21182 65.8481 2.11278 65.968 2.11278 65.9963C2.11278 66.0246 2.05336 66.1034 1.98074 66.1715C1.90811 66.2395 1.84869 66.3227 1.84869 66.3561C1.84869 66.3896 1.80907 66.4457 1.76065 66.4807C1.71224 66.5157 1.67262 66.5753 1.67262 66.6132C1.67262 66.6511 1.63301 66.7107 1.58459 66.7457C1.53617 66.7808 1.49656 66.8448 1.49656 66.888C1.49656 66.9312 1.47675 66.9666 1.45254 66.9666C1.42833 66.9666 1.40852 67.0063 1.40852 67.0549C1.40852 67.1035 1.38872 67.1433 1.36451 67.1433C1.3403 67.1433 1.32049 67.183 1.32049 67.2316C1.32049 67.2802 1.30068 67.32 1.27647 67.32C1.25227 67.32 1.23246 67.3597 1.23246 67.4083C1.23246 67.4569 1.21265 67.4967 1.18844 67.4967C1.16423 67.4967 1.14443 67.5364 1.14443 67.585C1.14443 67.6336 1.12462 67.6734 1.10041 67.6734C1.0762 67.6734 1.05639 67.7131 1.05639 67.7617C1.05639 67.8103 1.03659 67.8501 1.01238 67.8501C0.988167 67.8501 0.96836 67.8898 0.96836 67.9384C0.96836 67.987 0.948552 68.0267 0.924343 68.0267C0.900134 68.0267 0.880327 68.0665 0.880327 68.1151C0.880327 68.1637 0.86052 68.2034 0.836311 68.2034C0.812102 68.2034 0.792294 68.2631 0.792294 68.336C0.792294 68.4089 0.772487 68.4685 0.748278 68.4685C0.724069 68.4685 0.704262 68.5082 0.704262 68.5568C0.704262 68.6054 0.684454 68.6452 0.660245 68.6452C0.636036 68.6452 0.616229 68.7247 0.616229 68.8219C0.616229 68.9191 0.596422 68.9986 0.572213 68.9986C0.548004 68.9986 0.528196 69.0582 0.528196 69.1311C0.528196 69.204 0.508389 69.2636 0.48418 69.2636C0.459971 69.2636 0.440163 69.3232 0.440163 69.3961C0.440163 69.469 0.420356 69.5286 0.396147 69.5286C0.371938 69.5286 0.352131 69.628 0.352131 69.7495C0.352131 69.871 0.332323 69.9704 0.308114 69.9704C0.283905 69.9704 0.264098 70.0698 0.264098 70.1912C0.264098 70.3127 0.244291 70.4121 0.220082 70.4121C0.195873 70.4121 0.176065 70.5115 0.176065 70.633C0.176065 70.7544 0.156258 70.8538 0.132049 70.8538C0.105947 70.8538 0.0880327 71.0158 0.0880327 71.2514C0.0880327 71.487 0.070118 71.649 0.0440164 71.649C0.0156698 71.649 0 72.1054 0 72.93C0 73.7546 0.0156698 74.211 0.0440164 74.211C0.070118 74.211 0.0880327 74.373 0.0880327 74.6086C0.0880327 74.8441 0.105947 75.0061 0.132049 75.0061C0.156258 75.0061 0.176065 75.1055 0.176065 75.227C0.176065 75.3485 0.195873 75.4479 0.220082 75.4479C0.244291 75.4479 0.264098 75.5472 0.264098 75.6687C0.264098 75.7902 0.283905 75.8896 0.308114 75.8896C0.332323 75.8896 0.352131 75.9691 0.352131 76.0663C0.352131 76.1635 0.371938 76.243 0.396147 76.243C0.420356 76.243 0.440163 76.3225 0.440163 76.4197C0.440163 76.5168 0.459971 76.5964 0.48418 76.5964C0.508389 76.5964 0.528196 76.656 0.528196 76.7289C0.528196 76.8018 0.548004 76.8614 0.572213 76.8614C0.596422 76.8614 0.616229 76.921 0.616229 76.9939C0.616229 77.0668 0.636036 77.1264 0.660245 77.1264C0.684454 77.1264 0.704262 77.1861 0.704262 77.2589C0.704262 77.3318 0.724069 77.3915 0.748278 77.3915C0.772487 77.3915 0.792294 77.4312 0.792294 77.4798C0.792294 77.5284 0.812102 77.5682 0.836311 77.5682C0.86052 77.5682 0.880327 77.6278 0.880327 77.7007C0.880327 77.7736 0.900134 77.8332 0.924343 77.8332C0.948552 77.8332 0.96836 77.873 0.96836 77.9215C0.96836 77.9701 0.988167 78.0099 1.01238 78.0099C1.03659 78.0099 1.05639 78.0497 1.05639 78.0982C1.05639 78.1468 1.0762 78.1866 1.10041 78.1866C1.12462 78.1866 1.14443 78.2263 1.14443 78.2749C1.14443 78.3235 1.16423 78.3633 1.18844 78.3633C1.21265 78.3633 1.23246 78.403 1.23246 78.4516C1.23246 78.5002 1.25227 78.54 1.27647 78.54C1.30068 78.54 1.32049 78.5754 1.32049 78.6186C1.32049 78.6618 1.36011 78.7258 1.40852 78.7608C1.45694 78.7959 1.49656 78.8555 1.49656 78.8934C1.49656 78.9312 1.53617 78.9909 1.58459 79.0259C1.63301 79.0609 1.67262 79.1205 1.67262 79.1584C1.67262 79.1963 1.71224 79.2559 1.76065 79.2909C1.80907 79.326 1.84869 79.3856 1.84869 79.4234C1.84869 79.4613 1.8883 79.5209 1.93672 79.556C1.98514 79.591 2.02475 79.6463 2.02475 79.679C2.02475 79.7117 2.12379 79.8352 2.24483 79.9535C2.36588 80.0719 2.46492 80.1901 2.46492 80.2163C2.46492 80.2788 3.28582 81.102 3.34815 81.102C3.37456 81.102 3.47227 81.1815 3.56532 81.2787C3.65837 81.3759 3.76137 81.4554 3.79425 81.4554C3.82713 81.4554 3.88255 81.4952 3.91745 81.5438C3.95236 81.5923 4.01178 81.6321 4.0495 81.6321C4.08723 81.6321 4.14665 81.6719 4.18155 81.7204C4.21646 81.769 4.27588 81.8088 4.3136 81.8088C4.35132 81.8088 4.41075 81.8485 4.44565 81.8971C4.48056 81.9457 4.54434 81.9855 4.58743 81.9855C4.63048 81.9855 4.66573 82.0054 4.66573 82.0297C4.66573 82.054 4.70535 82.0738 4.75377 82.0738C4.80218 82.0738 4.8418 82.0937 4.8418 82.118C4.8418 82.1423 4.88141 82.1622 4.92983 82.1622C4.97825 82.1622 5.01786 82.1821 5.01786 82.2064C5.01786 82.2306 5.05748 82.2505 5.1059 82.2505C5.15431 82.2505 5.19393 82.2704 5.19393 82.2947C5.19393 82.319 5.23354 82.3389 5.28196 82.3389C5.33038 82.3389 5.36999 82.3587 5.36999 82.383C5.36999 82.4073 5.40961 82.4272 5.45803 82.4272C5.50645 82.4272 5.54606 82.4471 5.54606 82.4714C5.54606 82.4957 5.60548 82.5156 5.67811 82.5156C5.75074 82.5156 5.81016 82.5354 5.81016 82.5597C5.81016 82.584 5.84977 82.6039 5.89819 82.6039C5.94661 82.6039 5.98622 82.6238 5.98622 82.6481C5.98622 82.6724 6.04565 82.6923 6.11827 82.6923C6.1909 82.6923 6.25032 82.7121 6.25032 82.7364C6.25032 82.7607 6.32955 82.7806 6.42639 82.7806C6.52322 82.7806 6.60245 82.8005 6.60245 82.8248C6.60245 82.8491 6.68168 82.8689 6.77852 82.8689C6.87535 82.8689 6.95458 82.8888 6.95458 82.9131C6.95458 82.9374 7.05362 82.9573 7.17466 82.9573C7.29571 82.9573 7.39475 82.9772 7.39475 83.0015C7.39475 83.0272 7.54145 83.0456 7.74688 83.0456C7.9523 83.0456 8.09901 83.0641 8.09901 83.0898C8.09901 83.1179 8.45114 83.134 9.06737 83.134C9.6836 83.134 10.0357 83.1179 10.0357 83.0898C10.0357 83.0646 10.1678 83.0456 10.3438 83.0456C10.5199 83.0456 10.652 83.0267 10.652 83.0015C10.652 82.9772 10.751 82.9573 10.872 82.9573C10.9931 82.9573 11.0921 82.9374 11.0921 82.9131C11.0921 82.8888 11.1713 82.8689 11.2682 82.8689C11.365 82.8689 11.4443 82.8491 11.4443 82.8248C11.4443 82.8005 11.5037 82.7806 11.5763 82.7806C11.6489 82.7806 11.7083 82.7607 11.7083 82.7364C11.7083 82.7121 11.7678 82.6923 11.8404 82.6923C11.913 82.6923 11.9724 82.6724 11.9724 82.6481C11.9724 82.6238 12.0121 82.6039 12.0605 82.6039C12.1089 82.6039 12.1485 82.584 12.1485 82.5597C12.1485 82.5354 12.1881 82.5156 12.2365 82.5156C12.285 82.5156 12.3246 82.4957 12.3246 82.4714C12.3246 82.4471 12.3642 82.4272 12.4126 82.4272C12.461 82.4272 12.5006 82.4073 12.5006 82.383C12.5006 82.3587 12.5403 82.3389 12.5887 82.3389C12.6371 82.3389 12.6767 82.319 12.6767 82.2947C12.6767 82.2704 12.7163 82.2505 12.7647 82.2505C12.8132 82.2505 12.8528 82.2306 12.8528 82.2064C12.8528 82.1821 12.8924 82.1622 12.9408 82.1622C12.9892 82.1622 13.0288 82.1423 13.0288 82.118C13.0288 82.0937 13.0605 82.0738 13.0992 82.0738C13.1379 82.0738 13.2251 82.0142 13.2929 81.9413C13.3608 81.8684 13.44 81.8088 13.469 81.8088C13.498 81.8088 13.5772 81.7492 13.6451 81.6763C13.7129 81.6034 13.7905 81.5438 13.8174 81.5438C13.8794 81.5438 14.6134 80.81 14.6134 80.7481C14.6134 80.6763 14.9994 80.3069 15.0745 80.3069C15.1283 80.3069 15.1416 80.3683 15.1416 80.6161C15.1416 80.7928 15.1605 80.9253 15.1856 80.9253C15.2101 80.9253 15.2297 81.0431 15.2297 81.1904C15.2297 81.3376 15.2492 81.4554 15.2737 81.4554C15.2981 81.4554 15.3177 81.5732 15.3177 81.7204C15.3177 81.8677 15.3372 81.9855 15.3617 81.9855C15.3862 81.9855 15.4057 82.1033 15.4057 82.2505C15.4057 82.3978 15.4253 82.5156 15.4497 82.5156C15.4739 82.5156 15.4938 82.5752 15.4938 82.6481V82.7806H18.2228V72.0023H10.0357V75.3595H14.5254V75.492C14.5254 75.5649 14.5056 75.6245 14.4814 75.6245C14.4572 75.6245 14.4374 75.7041 14.4374 75.8012C14.4374 75.8984 14.4176 75.9779 14.3933 75.9779C14.3691 75.9779 14.3493 76.0574 14.3493 76.1546C14.3493 76.2518 14.3295 76.3313 14.3053 76.3313C14.2811 76.3313 14.2613 76.3711 14.2613 76.4197C14.2613 76.4683 14.2415 76.508 14.2173 76.508C14.1931 76.508 14.1733 76.5676 14.1733 76.6405C14.1733 76.7134 14.1535 76.773 14.1292 76.773C14.105 76.773 14.0852 76.8128 14.0852 76.8614C14.0852 76.91 14.0654 76.9497 14.0412 76.9497C14.017 76.9497 13.9972 76.9895 13.9972 77.0381C13.9972 77.0867 13.9774 77.1264 13.9532 77.1264C13.929 77.1264 13.9092 77.1662 13.9092 77.2148C13.9092 77.2634 13.8894 77.3031 13.8651 77.3031C13.8409 77.3031 13.8211 77.3429 13.8211 77.3915C13.8211 77.4401 13.8013 77.4798 13.7771 77.4798C13.7529 77.4798 13.7331 77.5116 13.7331 77.5505C13.7331 77.5893 13.6737 77.6768 13.6011 77.7449C13.5284 77.8129 13.469 77.8908 13.469 77.9178C13.469 77.9868 12.7345 78.7167 12.665 78.7167C12.6337 78.7167 12.5796 78.7564 12.5447 78.805C12.5098 78.8536 12.4503 78.8934 12.4126 78.8934C12.3749 78.8934 12.3155 78.9331 12.2806 78.9817C12.2457 79.0303 12.1819 79.0701 12.1388 79.0701C12.0957 79.0701 12.0605 79.0899 12.0605 79.1142C12.0605 79.1385 12.0209 79.1584 11.9724 79.1584C11.924 79.1584 11.8844 79.1783 11.8844 79.2026C11.8844 79.2269 11.825 79.2467 11.7524 79.2467C11.6797 79.2467 11.6203 79.2666 11.6203 79.2909C11.6203 79.3152 11.5609 79.3351 11.4883 79.3351C11.4156 79.3351 11.3562 79.355 11.3562 79.3793C11.3562 79.4036 11.2968 79.4234 11.2242 79.4234C11.1515 79.4234 11.0921 79.4433 11.0921 79.4676C11.0921 79.4919 10.9931 79.5118 10.872 79.5118C10.751 79.5118 10.652 79.5317 10.652 79.556C10.652 79.5839 10.3292 79.6001 9.77163 79.6001C9.21407 79.6001 8.8913 79.5839 8.8913 79.556C8.8913 79.5314 8.77391 79.5118 8.6272 79.5118C8.4805 79.5118 8.36311 79.4922 8.36311 79.4676C8.36311 79.4433 8.28388 79.4234 8.18704 79.4234C8.09021 79.4234 8.01098 79.4036 8.01098 79.3793C8.01098 79.355 7.97136 79.3351 7.92294 79.3351C7.87453 79.3351 7.83491 79.3152 7.83491 79.2909C7.83491 79.2666 7.77549 79.2467 7.70286 79.2467C7.63023 79.2467 7.57081 79.2269 7.57081 79.2026C7.57081 79.1783 7.5312 79.1584 7.48278 79.1584C7.43436 79.1584 7.39475 79.1385 7.39475 79.1142C7.39475 79.0899 7.35513 79.0701 7.30671 79.0701C7.2583 79.0701 7.21868 79.0502 7.21868 79.0259C7.21868 79.0016 7.17907 78.9817 7.13065 78.9817C7.08223 78.9817 7.04262 78.9618 7.04262 78.9375C7.04262 78.9132 7.01097 78.8934 6.97223 78.8934C6.93354 78.8934 6.84635 78.8337 6.77852 78.7608C6.71069 78.688 6.63318 78.6283 6.60633 78.6283C6.54259 78.6283 5.54606 77.6282 5.54606 77.5643C5.54606 77.5373 5.48664 77.4595 5.41401 77.3915C5.34138 77.3234 5.28196 77.2359 5.28196 77.1971C5.28196 77.1582 5.26215 77.1264 5.23795 77.1264C5.21374 77.1264 5.19393 77.091 5.19393 77.0478C5.19393 77.0046 5.15431 76.9406 5.1059 76.9056C5.05748 76.8705 5.01786 76.8065 5.01786 76.7633C5.01786 76.7201 4.99806 76.6847 4.97385 76.6847C4.94964 76.6847 4.92983 76.6449 4.92983 76.5964C4.92983 76.5478 4.91002 76.508 4.88581 76.508C4.86161 76.508 4.8418 76.4484 4.8418 76.3755C4.8418 76.3026 4.82199 76.243 4.79778 76.243C4.77357 76.243 4.75377 76.2032 4.75377 76.1546C4.75377 76.106 4.73396 76.0663 4.70975 76.0663C4.68554 76.0663 4.66573 76.0066 4.66573 75.9338C4.66573 75.8609 4.64593 75.8012 4.62172 75.8012C4.59751 75.8012 4.5777 75.7416 4.5777 75.6687C4.5777 75.5958 4.55789 75.5362 4.53368 75.5362C4.50947 75.5362 4.48967 75.4567 4.48967 75.3595C4.48967 75.2623 4.46986 75.1828 4.44565 75.1828C4.42144 75.1828 4.40164 75.1033 4.40164 75.0061C4.40164 74.9089 4.38183 74.8294 4.35762 74.8294C4.33315 74.8294 4.3136 74.7116 4.3136 74.5644C4.3136 74.4172 4.29406 74.2993 4.26959 74.2993C4.24252 74.2993 4.22557 74.0785 4.22557 73.7251C4.22557 73.3717 4.20862 73.1508 4.18155 73.1508C4.15642 73.1508 4.13754 73.0183 4.13754 72.8416C4.13754 72.6649 4.15642 72.5324 4.18155 72.5324C4.2088 72.5324 4.22557 72.2968 4.22557 71.914C4.22557 71.5311 4.24234 71.2956 4.26959 71.2956C4.2938 71.2956 4.3136 71.1962 4.3136 71.0747C4.3136 70.9532 4.33341 70.8538 4.35762 70.8538C4.38183 70.8538 4.40164 70.7544 4.40164 70.633C4.40164 70.5115 4.42144 70.4121 4.44565 70.4121C4.46986 70.4121 4.48967 70.3326 4.48967 70.2354C4.48967 70.1382 4.50947 70.0587 4.53368 70.0587C4.55789 70.0587 4.5777 69.9991 4.5777 69.9262C4.5777 69.8533 4.59751 69.7937 4.62172 69.7937C4.64593 69.7937 4.66573 69.734 4.66573 69.6612C4.66573 69.5883 4.68554 69.5286 4.70975 69.5286C4.73396 69.5286 4.75377 69.4889 4.75377 69.4403C4.75377 69.3917 4.77357 69.3519 4.79778 69.3519C4.82199 69.3519 4.8418 69.3122 4.8418 69.2636C4.8418 69.215 4.86161 69.1753 4.88581 69.1753C4.91002 69.1753 4.92983 69.12 4.92983 69.0525C4.92983 68.9804 4.96619 68.9035 5.01786 68.866C5.06628 68.831 5.1059 68.767 5.1059 68.7238C5.1059 68.6806 5.1257 68.6452 5.14991 68.6452C5.17412 68.6452 5.19393 68.6054 5.19393 68.5568C5.19393 68.5082 5.21374 68.4685 5.23795 68.4685C5.26215 68.4685 5.28196 68.4367 5.28196 68.3979C5.28196 68.359 5.34138 68.2715 5.41401 68.2034C5.48664 68.1354 5.54606 68.0576 5.54606 68.0306C5.54606 67.9666 6.45447 67.0549 6.51825 67.0549C6.54514 67.0549 6.62266 66.9953 6.69049 66.9224C6.75831 66.8495 6.84551 66.7899 6.8842 66.7899C6.92294 66.7899 6.95458 66.77 6.95458 66.7457C6.95458 66.7214 6.9942 66.7016 7.04262 66.7016C7.09103 66.7016 7.13065 66.6817 7.13065 66.6574C7.13065 66.6331 7.17026 66.6132 7.21868 66.6132C7.2671 66.6132 7.30671 66.5933 7.30671 66.569C7.30671 66.5447 7.34633 66.5249 7.39475 66.5249C7.44316 66.5249 7.48278 66.505 7.48278 66.4807C7.48278 66.4564 7.52239 66.4365 7.57081 66.4365C7.61923 66.4365 7.65884 66.4166 7.65884 66.3923C7.65884 66.368 7.71827 66.3482 7.79089 66.3482C7.86352 66.3482 7.92294 66.3283 7.92294 66.304C7.92294 66.2797 7.98237 66.2598 8.05499 66.2598C8.12762 66.2598 8.18704 66.2399 8.18704 66.2157C8.18704 66.1914 8.26627 66.1715 8.36311 66.1715C8.45994 66.1715 8.53917 66.1516 8.53917 66.1273C8.53917 66.1015 8.68588 66.0831 8.8913 66.0831C9.09673 66.0831 9.24343 66.0647 9.24343 66.039C9.24343 66.0122 9.43416 65.9948 9.72761 65.9948C10.0211 65.9948 10.2118 66.0122 10.2118 66.039C10.2118 66.0647 10.3585 66.0831 10.5639 66.0831C10.7693 66.0831 10.9161 66.1015 10.9161 66.1273C10.9161 66.1516 10.9953 66.1715 11.0921 66.1715C11.189 66.1715 11.2682 66.1914 11.2682 66.2157C11.2682 66.2399 11.3276 66.2598 11.4002 66.2598C11.4729 66.2598 11.5323 66.2797 11.5323 66.304C11.5323 66.3283 11.5719 66.3482 11.6203 66.3482C11.6687 66.3482 11.7083 66.368 11.7083 66.3923C11.7083 66.4166 11.7678 66.4365 11.8404 66.4365C11.913 66.4365 11.9724 66.4564 11.9724 66.4807C11.9724 66.505 12.0077 66.5249 12.0508 66.5249C12.0938 66.5249 12.1576 66.5646 12.1925 66.6132C12.2274 66.6618 12.2833 66.7016 12.3167 66.7016C12.35 66.7016 12.4328 66.7612 12.5006 66.8341C12.5685 66.907 12.6463 66.9666 12.6735 66.9666C12.7375 66.9666 13.1169 67.3466 13.1169 67.4106C13.1169 67.4375 13.1961 67.5358 13.2929 67.6292C13.3898 67.7226 13.469 67.8303 13.469 67.8687C13.469 67.907 13.4888 67.9384 13.513 67.9384C13.5372 67.9384 13.557 67.9738 13.557 68.017C13.557 68.0602 13.5967 68.1242 13.6451 68.1593C13.6935 68.1943 13.7331 68.2583 13.7331 68.3016C13.7331 68.3447 13.7529 68.3801 13.7771 68.3801C13.8013 68.3801 13.8211 68.4199 13.8211 68.4685C13.8211 68.5171 13.8409 68.5568 13.8651 68.5568C13.8894 68.5568 13.9092 68.6165 13.9092 68.6893C13.9092 68.7622 13.929 68.8219 13.9532 68.8219C13.9774 68.8219 13.9972 68.8616 13.9972 68.9102C13.9972 68.9588 14.017 68.9986 14.0412 68.9986C14.0654 68.9986 14.0852 69.0383 14.0852 69.0869C14.0852 69.174 14.1146 69.1753 16.154 69.1753H18.2228V68.9544C18.2228 68.8329 18.203 68.7335 18.1788 68.7335C18.1545 68.7335 18.1347 68.6341 18.1347 68.5127C18.1347 68.3912 18.1149 68.2918 18.0907 68.2918C18.0665 68.2918 18.0467 68.2123 18.0467 68.1151C18.0467 68.0179 18.0269 67.9384 18.0027 67.9384C17.9785 67.9384 17.9587 67.8788 17.9587 67.8059C17.9587 67.733 17.9389 67.6734 17.9147 67.6734C17.8904 67.6734 17.8706 67.6137 17.8706 67.5408C17.8706 67.468 17.8508 67.4083 17.8266 67.4083C17.8024 67.4083 17.7826 67.3487 17.7826 67.2758C17.7826 67.2029 17.7628 67.1433 17.7386 67.1433C17.7144 67.1433 17.6946 67.1035 17.6946 67.0549C17.6946 67.0063 17.6748 66.9666 17.6506 66.9666C17.6263 66.9666 17.6065 66.9268 17.6065 66.8783C17.6065 66.8297 17.5867 66.7899 17.5625 66.7899C17.5383 66.7899 17.5185 66.7501 17.5185 66.7016C17.5185 66.653 17.4987 66.6132 17.4745 66.6132C17.4503 66.6132 17.4305 66.5734 17.4305 66.5249C17.4305 66.4763 17.4107 66.4365 17.3865 66.4365C17.3622 66.4365 17.3424 66.3968 17.3424 66.3482C17.3424 66.2996 17.3226 66.2598 17.2984 66.2598C17.2742 66.2598 17.2544 66.2244 17.2544 66.1812C17.2544 66.138 17.2148 66.074 17.1664 66.039C17.118 66.0039 17.0783 65.9443 17.0783 65.9064C17.0783 65.8686 17.0387 65.8089 16.9903 65.7739C16.9419 65.7389 16.9023 65.6828 16.9023 65.6493C16.9023 65.6159 16.8429 65.5328 16.7702 65.4647C16.6976 65.3966 16.6382 65.3188 16.6382 65.2918C16.6382 65.2282 15.9064 64.4929 15.8431 64.4929C15.8166 64.4929 15.7189 64.4134 15.6258 64.3162C15.5328 64.219 15.4298 64.1395 15.3969 64.1395C15.364 64.1395 15.3086 64.0998 15.2737 64.0512C15.2388 64.0026 15.1793 63.9628 15.1416 63.9628C15.1039 63.9628 15.0445 63.9231 15.0096 63.8745C14.9747 63.8259 14.9152 63.7861 14.8775 63.7861C14.8398 63.7861 14.7804 63.7464 14.7455 63.6978C14.7106 63.6492 14.6468 63.6094 14.6037 63.6094C14.5607 63.6094 14.5254 63.5896 14.5254 63.5653C14.5254 63.541 14.4858 63.5211 14.4374 63.5211C14.3889 63.5211 14.3493 63.5012 14.3493 63.4769C14.3493 63.4526 14.3097 63.4327 14.2613 63.4327C14.2129 63.4327 14.1733 63.4129 14.1733 63.3886C14.1733 63.3643 14.1336 63.3444 14.0852 63.3444C14.0368 63.3444 13.9972 63.3245 13.9972 63.3002C13.9972 63.2759 13.9378 63.256 13.8651 63.256C13.7925 63.256 13.7331 63.2362 13.7331 63.2119C13.7331 63.1876 13.6935 63.1677 13.6451 63.1677C13.5967 63.1677 13.557 63.1478 13.557 63.1235C13.557 63.0992 13.4976 63.0793 13.425 63.0793C13.3524 63.0793 13.2929 63.0595 13.2929 63.0352C13.2929 63.0109 13.2335 62.991 13.1609 62.991C13.0883 62.991 13.0288 62.9711 13.0288 62.9468C13.0288 62.9225 12.9694 62.9027 12.8968 62.9027C12.8242 62.9027 12.7647 62.8828 12.7647 62.8585C12.7647 62.8342 12.6855 62.8143 12.5887 62.8143C12.4918 62.8143 12.4126 62.7944 12.4126 62.7701C12.4126 62.7458 12.3136 62.726 12.1925 62.726C12.0715 62.726 11.9724 62.7061 11.9724 62.6818C11.9724 62.6572 11.8551 62.6376 11.7083 62.6376C11.5616 62.6376 11.4443 62.618 11.4443 62.5934C11.4443 62.5672 11.2828 62.5493 11.0481 62.5493C10.8134 62.5493 10.652 62.5313 10.652 62.5051C10.652 62.4771 10.3292 62.4609 9.77163 62.4609C9.21407 62.4609 8.8913 62.4771 8.8913 62.5051ZM22.6244 66.3482H36.9737V62.726H22.6244V66.3482ZM41.5514 82.7806H45.3368V75.8454C45.3368 68.9397 45.3372 68.9102 45.4249 68.9102C45.4835 68.9102 45.5129 68.9397 45.5129 68.9986C45.5129 69.0471 45.5327 69.0869 45.5569 69.0869C45.5811 69.0869 45.6009 69.1223 45.6009 69.1655C45.6009 69.2087 45.6406 69.2727 45.689 69.3078C45.7374 69.3428 45.777 69.4068 45.777 69.4501C45.777 69.4933 45.7968 69.5286 45.821 69.5286C45.8452 69.5286 45.865 69.564 45.865 69.6072C45.865 69.6505 45.9047 69.7145 45.9531 69.7495C46.0015 69.7845 46.0411 69.8485 46.0411 69.8918C46.0411 69.935 46.0609 69.9704 46.0851 69.9704C46.1093 69.9704 46.1291 70.0058 46.1291 70.049C46.1291 70.0922 46.1688 70.1562 46.2172 70.1912C46.2656 70.2263 46.3052 70.2903 46.3052 70.3335C46.3052 70.3767 46.325 70.4121 46.3492 70.4121C46.3734 70.4121 46.3932 70.4475 46.3932 70.4907C46.3932 70.5339 46.4328 70.5979 46.4813 70.633C46.5297 70.668 46.5693 70.732 46.5693 70.7753C46.5693 70.8185 46.5891 70.8538 46.6133 70.8538C46.6375 70.8538 46.6573 70.8892 46.6573 70.9324C46.6573 70.9757 46.6969 71.0397 46.7454 71.0747C46.7938 71.1097 46.8334 71.1737 46.8334 71.217C46.8334 71.2602 46.8532 71.2956 46.8774 71.2956C46.9016 71.2956 46.9214 71.3309 46.9214 71.3742C46.9214 71.4174 46.961 71.4814 47.0095 71.5164C47.0579 71.5515 47.0975 71.6155 47.0975 71.6587C47.0975 71.7019 47.1173 71.7373 47.1415 71.7373C47.1657 71.7373 47.1855 71.7727 47.1855 71.8159C47.1855 71.8591 47.2251 71.9231 47.2736 71.9582C47.322 71.9932 47.3616 72.0572 47.3616 72.1004C47.3616 72.1436 47.3814 72.179 47.4056 72.179C47.4298 72.179 47.4496 72.2188 47.4496 72.2674C47.4496 72.316 47.4694 72.3557 47.4936 72.3557C47.5179 72.3557 47.5377 72.3911 47.5377 72.4343C47.5377 72.4776 47.5773 72.5416 47.6257 72.5766C47.6741 72.6116 47.7137 72.6756 47.7137 72.7189C47.7137 72.7621 47.7335 72.7975 47.7577 72.7975C47.7819 72.7975 47.8018 72.8328 47.8018 72.876C47.8018 72.9193 47.8414 72.9833 47.8898 73.0183C47.9382 73.0534 47.9778 73.1174 47.9778 73.1606C47.9778 73.2038 47.9976 73.2392 48.0218 73.2392C48.046 73.2392 48.0659 73.2746 48.0659 73.3178C48.0659 73.361 48.1055 73.425 48.1539 73.4601C48.2023 73.4951 48.2419 73.5591 48.2419 73.6023C48.2419 73.6455 48.2617 73.6809 48.2859 73.6809C48.3101 73.6809 48.33 73.7163 48.33 73.7595C48.33 73.8027 48.3696 73.8668 48.418 73.9018C48.4664 73.9368 48.506 74.0008 48.506 74.0441C48.506 74.0873 48.5258 74.1227 48.55 74.1227C48.5742 74.1227 48.594 74.158 48.594 74.2012C48.594 74.2445 48.6337 74.3085 48.6821 74.3435C48.7305 74.3785 48.7701 74.4426 48.7701 74.4858C48.7701 74.529 48.7899 74.5644 48.8141 74.5644C48.8383 74.5644 48.8581 74.5998 48.8581 74.643C48.8581 74.6862 48.8978 74.7502 48.9462 74.7853C48.9946 74.8203 49.0342 74.8843 49.0342 74.9275C49.0342 74.9707 49.054 75.0061 49.0782 75.0061C49.1024 75.0061 49.1222 75.0415 49.1222 75.0847C49.1222 75.1279 49.1619 75.192 49.2103 75.227C49.2587 75.262 49.2983 75.326 49.2983 75.3693C49.2983 75.4125 49.3181 75.4479 49.3423 75.4479C49.3665 75.4479 49.3863 75.4832 49.3863 75.5264C49.3863 75.5697 49.426 75.6337 49.4744 75.6687C49.5228 75.7037 49.5624 75.7678 49.5624 75.811C49.5624 75.8542 49.5822 75.8896 49.6064 75.8896C49.6306 75.8896 49.6504 75.925 49.6504 75.9682C49.6504 76.0114 49.6901 76.0754 49.7385 76.1105C49.7869 76.1455 49.8265 76.2095 49.8265 76.2527C49.8265 76.2959 49.8463 76.3313 49.8705 76.3313C49.8947 76.3313 49.9145 76.3667 49.9145 76.4099C49.9145 76.4531 49.9542 76.5172 50.0026 76.5522C50.051 76.5872 50.0906 76.6512 50.0906 76.6945C50.0906 76.7377 50.1104 76.773 50.1346 76.773C50.1588 76.773 50.1786 76.8084 50.1786 76.8516C50.1786 76.8949 50.2183 76.9589 50.2667 76.9939C50.3151 77.0289 50.3547 77.0929 50.3547 77.1362C50.3547 77.1794 50.3745 77.2148 50.3987 77.2148C50.4229 77.2148 50.4427 77.2502 50.4427 77.2934C50.4427 77.3366 50.4823 77.4006 50.5308 77.4356C50.5792 77.4707 50.6188 77.5347 50.6188 77.5779C50.6188 77.6211 50.6386 77.6565 50.6628 77.6565C50.687 77.6565 50.7068 77.6919 50.7068 77.7351C50.7068 77.7783 50.7464 77.8423 50.7949 77.8774C50.8433 77.9124 50.8829 77.9764 50.8829 78.0197C50.8829 78.0629 50.9027 78.0982 50.9269 78.0982C50.9511 78.0982 50.9709 78.1336 50.9709 78.1768C50.9709 78.2201 51.0105 78.2841 51.059 78.3191C51.1074 78.3541 51.147 78.4181 51.147 78.4614C51.147 78.5046 51.1668 78.54 51.191 78.54C51.2152 78.54 51.235 78.5754 51.235 78.6186C51.235 78.6618 51.2746 78.7258 51.3231 78.7608C51.3715 78.7959 51.4111 78.8599 51.4111 78.9031C51.4111 78.9463 51.4309 78.9817 51.4551 78.9817C51.4793 78.9817 51.4991 79.0171 51.4991 79.0603C51.4991 79.1035 51.5387 79.1675 51.5872 79.2026C51.6356 79.2376 51.6752 79.3016 51.6752 79.3449C51.6752 79.3881 51.695 79.4234 51.7192 79.4234C51.7434 79.4234 51.7632 79.4588 51.7632 79.502C51.7632 79.5453 51.8028 79.6093 51.8513 79.6443C51.8997 79.6793 51.9393 79.7433 51.9393 79.7866C51.9393 79.8298 51.9591 79.8652 51.9833 79.8652C52.0075 79.8652 52.0273 79.9006 52.0273 79.9438C52.0273 79.987 52.0669 80.051 52.1154 80.086C52.1638 80.1211 52.2034 80.1851 52.2034 80.2283C52.2034 80.2715 52.2232 80.3069 52.2474 80.3069C52.2716 80.3069 52.2914 80.3423 52.2914 80.3855C52.2914 80.4287 52.331 80.4927 52.3795 80.5278C52.4279 80.5628 52.4675 80.6268 52.4675 80.6701C52.4675 80.7132 52.4873 80.7486 52.5115 80.7486C52.5357 80.7486 52.5555 80.784 52.5555 80.8272C52.5555 80.8705 52.5951 80.9345 52.6436 80.9695C52.692 81.0045 52.7316 81.0685 52.7316 81.1118C52.7316 81.155 52.7514 81.1904 52.7756 81.1904C52.7998 81.1904 52.8196 81.2257 52.8196 81.269C52.8196 81.3122 52.8592 81.3762 52.9077 81.4112C52.9561 81.4463 52.9957 81.5103 52.9957 81.5535C52.9957 81.5967 53.0155 81.6321 53.0397 81.6321C53.0639 81.6321 53.0837 81.6675 53.0837 81.7107C53.0837 81.7539 53.1233 81.8179 53.1718 81.853C53.2202 81.888 53.2598 81.952 53.2598 81.9952C53.2598 82.0384 53.2796 82.0738 53.3038 82.0738C53.328 82.0738 53.3478 82.1092 53.3478 82.1524C53.3478 82.1957 53.3874 82.2597 53.4359 82.2947C53.4843 82.3297 53.5239 82.3937 53.5239 82.437C53.5239 82.4802 53.5437 82.5156 53.5679 82.5156C53.5921 82.5156 53.6119 82.5468 53.6119 82.585C53.6119 82.7784 53.6353 82.7806 55.6555 82.7806H57.5734V62.8143H53.6999V69.7495C53.6999 74.3435 53.6851 76.6847 53.6559 76.6847C53.6317 76.6847 53.6119 76.6493 53.6119 76.6061C53.6119 76.5629 53.5723 76.4989 53.5239 76.4638C53.4755 76.4288 53.4359 76.3648 53.4359 76.3215C53.4359 76.2784 53.416 76.243 53.3918 76.243C53.3676 76.243 53.3478 76.2076 53.3478 76.1644C53.3478 76.1211 53.3082 76.0571 53.2598 76.0221C53.2114 75.9871 53.1718 75.9231 53.1718 75.8798C53.1718 75.8366 53.1519 75.8012 53.1277 75.8012C53.1035 75.8012 53.0837 75.7615 53.0837 75.7129C53.0837 75.6643 53.0639 75.6245 53.0397 75.6245C53.0155 75.6245 52.9957 75.5892 52.9957 75.546C52.9957 75.5027 52.9561 75.4387 52.9077 75.4037C52.8592 75.3686 52.8196 75.3046 52.8196 75.2614C52.8196 75.2182 52.7998 75.1828 52.7756 75.1828C52.7514 75.1828 52.7316 75.1474 52.7316 75.1042C52.7316 75.061 52.692 74.997 52.6436 74.9619C52.5951 74.9269 52.5555 74.8629 52.5555 74.8197C52.5555 74.7765 52.5357 74.7411 52.5115 74.7411C52.4873 74.7411 52.4675 74.7013 52.4675 74.6527C52.4675 74.6041 52.4477 74.5644 52.4235 74.5644C52.3993 74.5644 52.3795 74.529 52.3795 74.4858C52.3795 74.4426 52.3398 74.3785 52.2914 74.3435C52.243 74.3085 52.2034 74.2445 52.2034 74.2012C52.2034 74.158 52.1836 74.1227 52.1594 74.1227C52.1352 74.1227 52.1154 74.0873 52.1154 74.0441C52.1154 74.0008 52.0757 73.9368 52.0273 73.9018C51.9789 73.8668 51.9393 73.8027 51.9393 73.7595C51.9393 73.7163 51.9195 73.6809 51.8953 73.6809C51.8711 73.6809 51.8513 73.6412 51.8513 73.5926C51.8513 73.544 51.8315 73.5042 51.8072 73.5042C51.783 73.5042 51.7632 73.4688 51.7632 73.4256C51.7632 73.3824 51.7236 73.3184 51.6752 73.2834C51.6268 73.2483 51.5872 73.1843 51.5872 73.1411C51.5872 73.0979 51.5674 73.0625 51.5431 73.0625C51.5189 73.0625 51.4991 73.0271 51.4991 72.9839C51.4991 72.9407 51.4595 72.8767 51.4111 72.8416C51.3627 72.8066 51.3231 72.7426 51.3231 72.6993C51.3231 72.6561 51.3033 72.6208 51.279 72.6208C51.2548 72.6208 51.235 72.581 51.235 72.5324C51.235 72.4838 51.2152 72.4441 51.191 72.4441C51.1668 72.4441 51.147 72.4087 51.147 72.3655C51.147 72.3222 51.1074 72.2582 51.059 72.2232C51.0105 72.1882 50.9709 72.1242 50.9709 72.0809C50.9709 72.0377 50.9511 72.0023 50.9269 72.0023C50.9027 72.0023 50.8829 71.967 50.8829 71.9238C50.8829 71.8805 50.8433 71.8165 50.7949 71.7815C50.7464 71.7464 50.7068 71.6824 50.7068 71.6392C50.7068 71.596 50.687 71.5606 50.6628 71.5606C50.6386 71.5606 50.6188 71.5252 50.6188 71.482C50.6188 71.4388 50.5792 71.3748 50.5308 71.3397C50.4823 71.3047 50.4427 71.2407 50.4427 71.1975C50.4427 71.1543 50.4229 71.1189 50.3987 71.1189C50.3745 71.1189 50.3547 71.0791 50.3547 71.0305C50.3547 70.9819 50.3349 70.9422 50.3107 70.9422C50.2865 70.9422 50.2667 70.9068 50.2667 70.8636C50.2667 70.8204 50.2271 70.7563 50.1786 70.7213C50.1302 70.6863 50.0906 70.6223 50.0906 70.579C50.0906 70.5358 50.0708 70.5005 50.0466 70.5005C50.0224 70.5005 50.0026 70.4651 50.0026 70.4219C50.0026 70.3786 49.963 70.3146 49.9145 70.2796C49.8661 70.2446 49.8265 70.1805 49.8265 70.1373C49.8265 70.0941 49.8067 70.0587 49.7825 70.0587C49.7583 70.0587 49.7385 70.019 49.7385 69.9704C49.7385 69.9218 49.7187 69.882 49.6945 69.882C49.6702 69.882 49.6504 69.8466 49.6504 69.8034C49.6504 69.7602 49.6108 69.6962 49.5624 69.6612C49.514 69.6261 49.4744 69.5621 49.4744 69.5189C49.4744 69.4757 49.4546 69.4403 49.4304 69.4403C49.4062 69.4403 49.3863 69.4049 49.3863 69.3617C49.3863 69.3185 49.3467 69.2545 49.2983 69.2194C49.2499 69.1844 49.2103 69.1204 49.2103 69.0771C49.2103 69.0339 49.1905 68.9986 49.1663 68.9986C49.1421 68.9986 49.1222 68.9588 49.1222 68.9102C49.1222 68.8616 49.1024 68.8219 49.0782 68.8219C49.054 68.8219 49.0342 68.7865 49.0342 68.7433C49.0342 68.7 48.9946 68.636 48.9462 68.601C48.8978 68.566 48.8581 68.502 48.8581 68.4587C48.8581 68.4155 48.8383 68.3801 48.8141 68.3801C48.7899 68.3801 48.7701 68.3447 48.7701 68.3016C48.7701 68.2583 48.7305 68.1943 48.6821 68.1593C48.6337 68.1242 48.594 68.0602 48.594 68.017C48.594 67.9738 48.5742 67.9384 48.55 67.9384C48.5258 67.9384 48.506 67.8987 48.506 67.8501C48.506 67.8015 48.4862 67.7617 48.462 67.7617C48.4378 67.7617 48.418 67.7263 48.418 67.6831C48.418 67.6399 48.3784 67.5759 48.33 67.5408C48.2815 67.5058 48.2419 67.4418 48.2419 67.3986C48.2419 67.3554 48.2221 67.32 48.1979 67.32C48.1737 67.32 48.1539 67.2846 48.1539 67.2414C48.1539 67.1982 48.1143 67.1341 48.0659 67.0991C48.0174 67.0641 47.9778 67.0001 47.9778 66.9568C47.9778 66.9136 47.958 66.8783 47.9338 66.8783C47.9096 66.8783 47.8898 66.8385 47.8898 66.7899C47.8898 66.7413 47.87 66.7016 47.8458 66.7016C47.8216 66.7016 47.8018 66.6662 47.8018 66.623C47.8018 66.5797 47.7621 66.5157 47.7137 66.4807C47.6653 66.4457 47.6257 66.3817 47.6257 66.3384C47.6257 66.2952 47.6059 66.2598 47.5817 66.2598C47.5575 66.2598 47.5377 66.2244 47.5377 66.1812C47.5377 66.138 47.498 66.074 47.4496 66.039C47.4012 66.0039 47.3616 65.9399 47.3616 65.8967C47.3616 65.8535 47.3418 65.8181 47.3176 65.8181C47.2934 65.8181 47.2736 65.7827 47.2736 65.7395C47.2736 65.6963 47.2339 65.6323 47.1855 65.5972C47.1371 65.5622 47.0975 65.4982 47.0975 65.4549C47.0975 65.4117 47.0777 65.3764 47.0535 65.3764C47.0293 65.3764 47.0095 65.3366 47.0095 65.288C47.0095 65.2394 46.9897 65.1997 46.9654 65.1997C46.9412 65.1997 46.9214 65.1643 46.9214 65.1211C46.9214 65.0778 46.8818 65.0138 46.8334 64.9788C46.785 64.9438 46.7454 64.8798 46.7454 64.8365C46.7454 64.7933 46.7256 64.7579 46.7013 64.7579C46.6771 64.7579 46.6573 64.7225 46.6573 64.6793C46.6573 64.6361 46.6177 64.5721 46.5693 64.5371C46.5209 64.502 46.4813 64.438 46.4813 64.3948C46.4813 64.3516 46.4615 64.3162 46.4372 64.3162C46.413 64.3162 46.3932 64.2764 46.3932 64.2279C46.3932 64.1793 46.3734 64.1395 46.3492 64.1395C46.325 64.1395 46.3052 64.1041 46.3052 64.0609C46.3052 64.0177 46.2656 63.9537 46.2172 63.9186C46.1688 63.8836 46.1291 63.8196 46.1291 63.7764C46.1291 63.7332 46.1093 63.6978 46.0851 63.6978C46.0609 63.6978 46.0411 63.6624 46.0411 63.6192C46.0411 63.5759 46.0015 63.5119 45.9531 63.4769C45.9047 63.4419 45.865 63.3779 45.865 63.3346C45.865 63.2914 45.8452 63.256 45.821 63.256C45.7968 63.256 45.777 63.2163 45.777 63.1677C45.777 63.1191 45.7572 63.0793 45.733 63.0793C45.7088 63.0793 45.689 63.0481 45.689 63.01C45.689 62.8159 45.6715 62.8143 43.5573 62.8143H41.5514V82.7806ZM23.8569 74.5644H35.7413V70.9422H23.8569V74.5644ZM22.6244 82.7806H36.9737V79.1584H22.6244V82.7806Z" fill="#00ADEE"/>
<path d="M45.2299 5.7867C39.7413 3.1537 34.0183 2.47503 28.1138 3.91891C22.2801 5.34567 17.5551 8.54225 13.9846 13.3764C10.3689 18.2721 8.79988 23.8153 9.20783 29.8619C9.58459 35.452 11.6638 40.3877 15.3951 44.5999C19.1092 48.7923 23.7072 51.4727 29.1984 52.5529C34.7446 53.6436 40.0786 52.9223 45.1825 50.4707C42.5684 52.5327 39.6702 54.0657 36.4892 54.9965C28.3057 57.3915 20.5056 56.4545 13.2447 51.9454C7.34463 48.2814 3.30075 43.0615 1.3124 36.4079C-1.26437 27.7837 -0.0589789 19.6062 5.03704 12.175C9.52882 5.62548 15.8017 1.65051 23.6725 0.38673C31.6031 -0.88628 38.7884 1.00127 45.2299 5.7867Z" fill="url(#paint0_linear_7016_3105)"/>
<path d="M24.0332 48.3607C28.4307 49.5844 32.7889 49.5335 37.1082 47.9973C41.3671 46.4827 44.7854 43.8555 47.3678 40.1456C49.9746 36.4006 51.2632 32.2166 51.1136 27.661C50.8866 20.766 48.0033 15.1645 42.4458 11.0995C36.8541 7.00901 30.6252 6.12816 23.9816 7.932C31.72 3.67301 42.6575 4.4143 50.0516 11.4045C58.66 19.5424 59.1429 31.6829 53.9549 40.0548C50.8389 45.0836 46.4365 48.4718 40.7369 50.0865C34.9536 51.7248 29.3865 51.0713 24.0327 48.3607H24.0332Z" fill="url(#paint1_linear_7016_3105)"/>
<path d="M40.4684 23.8509C40.3162 23.8509 40.2302 23.8509 40.1437 23.8509C38.7468 23.8487 37.35 23.8465 35.9531 23.8443C35.5059 23.8439 35.5116 23.8417 35.3497 23.4277C35.0377 22.6301 34.5826 21.9236 33.9366 21.3568C33.5021 20.9758 33.0124 20.6841 32.4515 20.501C31.9596 20.3402 31.4667 20.2426 30.9506 20.2355C30.6908 20.232 30.4267 20.1554 30.1726 20.1825C29.6661 20.2369 29.1628 20.3262 28.6629 20.4256C27.6053 20.6368 26.7298 21.1961 25.9815 21.9416C25.3022 22.6187 24.8111 23.4365 24.4811 24.3353C24.313 24.7935 24.2007 25.2761 24.1076 25.7562C24.0146 26.2358 23.9589 26.7251 23.9198 27.2126C23.8768 27.7469 23.8312 28.2861 23.861 28.8192C23.8926 29.3842 23.9843 29.9497 24.1015 30.5042C24.2143 31.0368 24.3595 31.5681 24.5504 32.0775C24.8352 32.8379 25.2622 33.5186 25.8156 34.1256C26.1878 34.5339 26.5915 34.8935 27.0545 35.1904C27.5342 35.4984 28.0481 35.7187 28.601 35.8707C29.3576 36.0787 30.1238 36.1659 30.8997 36.1046C31.3259 36.0708 31.7458 35.9548 32.1667 35.868C32.674 35.7638 33.1238 35.5338 33.5601 35.2583C34.2929 34.7954 34.8358 34.1668 35.258 33.4218C35.5739 32.8642 35.7644 32.2571 35.9527 31.65C35.9904 31.5278 36.0216 31.4004 36.029 31.2738C36.0317 31.2265 35.9672 31.1546 35.9162 31.1305C35.8623 31.1051 35.7872 31.1222 35.7214 31.1222C34.1709 31.1222 32.6205 31.1222 31.07 31.1231C30.984 31.1231 30.8975 31.1231 30.7913 31.1231C30.7869 31.0245 30.7799 30.947 30.7799 30.8691C30.779 29.7377 30.7839 28.6063 30.7755 27.4749C30.7738 27.2678 30.8308 27.1959 31.0467 27.1964C34.0893 27.2025 37.1319 27.2021 40.1744 27.1964C40.3741 27.1964 40.4399 27.2524 40.4399 27.4574C40.4347 31.4941 40.436 35.5308 40.4355 39.5674C40.4355 39.6318 40.429 39.6967 40.4246 39.7768C40.3535 39.7829 40.2903 39.7935 40.2275 39.7935C39.284 39.7948 38.3405 39.7895 37.3969 39.7983C37.1797 39.8005 37.1336 39.6927 37.1064 39.5118C37.0331 39.0226 36.9401 38.5364 36.8633 38.0476C36.8185 37.7624 36.7939 37.4738 36.7501 37.1882C36.7391 37.1168 36.6891 37.0515 36.6566 36.9836C36.5995 37.02 36.5341 37.0471 36.4876 37.094C36.0097 37.5719 35.5656 38.0887 35.0508 38.5228C34.4887 38.9967 33.8567 39.3861 33.1462 39.6213C32.728 39.7597 32.3137 39.9117 31.8915 40.0357C31.6857 40.0961 31.4659 40.1141 31.2508 40.1364C30.7189 40.192 30.187 40.2472 29.6538 40.284C29.477 40.2963 29.2962 40.2472 29.1167 40.2332C28.6607 40.1977 28.1982 40.2039 27.7505 40.1242C27.112 40.0107 26.4695 39.892 25.8701 39.6231C25.3237 39.3778 24.7532 39.1737 24.2362 38.8776C23.28 38.3301 22.4751 37.5885 21.744 36.7659C21.0251 35.957 20.4652 35.0446 20.0189 34.0678C19.7845 33.5554 19.6217 33.007 19.4633 32.4638C19.2996 31.9041 19.1798 31.3316 19.0415 30.7644C19.038 30.7504 19.0389 30.7355 19.038 30.7206C19.002 30.1928 18.9678 29.6645 18.9292 29.1372C18.9121 28.9002 18.8634 28.6637 18.8682 28.428C18.8805 27.8634 18.8923 27.2967 18.9489 26.7351C19.0086 26.1416 19.0867 25.5464 19.2171 24.9652C19.383 24.2254 19.6011 23.5 19.8846 22.7896C20.2058 21.9845 20.6144 21.2364 21.1059 20.5281C21.6141 19.7958 22.2144 19.1432 22.8898 18.5637C23.6824 17.8839 24.5438 17.307 25.5247 16.9273C25.9798 16.7512 26.4362 16.5764 26.9022 16.4332C27.2156 16.3368 27.546 16.2961 27.8686 16.2313C28.4825 16.1082 29.1009 16.0434 29.7284 16.0464C30.0751 16.0482 30.4231 15.9759 30.7676 15.9934C31.3895 16.025 32.0127 16.0727 32.6279 16.1634C33.1589 16.2418 33.693 16.3487 34.2021 16.5151C34.9674 16.7652 35.7122 17.0727 36.4064 17.4971C37.2082 17.9877 37.9095 18.5873 38.5217 19.2951C39.0255 19.8768 39.4314 20.5255 39.7206 21.2338C39.9392 21.7694 40.095 22.3314 40.2591 22.8877C40.3473 23.1873 40.3938 23.4996 40.4689 23.8504L40.4684 23.8509Z" fill="white"/>
<path d="M40.4684 23.8509C40.3162 23.8509 40.2302 23.8509 40.1437 23.8509C38.7468 23.8487 37.35 23.8465 35.9531 23.8443C35.5059 23.8439 35.5116 23.8417 35.3497 23.4277C35.0377 22.6301 34.5826 21.9236 33.9366 21.3568C33.5021 20.9758 33.0124 20.6841 32.4515 20.501C31.9596 20.3402 31.4667 20.2426 30.9506 20.2355C30.6908 20.232 30.4267 20.1554 30.1726 20.1825C29.6661 20.2369 29.1628 20.3262 28.6629 20.4256C27.6053 20.6368 26.7298 21.1961 25.9815 21.9416C25.3022 22.6187 24.8111 23.4365 24.4811 24.3353C24.313 24.7935 24.2007 25.2761 24.1076 25.7562C24.0146 26.2358 23.9589 26.7251 23.9198 27.2126C23.8768 27.7469 23.8312 28.2861 23.861 28.8192C23.8926 29.3842 23.9843 29.9497 24.1015 30.5042C24.2143 31.0368 24.3595 31.5681 24.5504 32.0775C24.8352 32.8379 25.2622 33.5186 25.8156 34.1256C26.1878 34.5339 26.5915 34.8935 27.0545 35.1904C27.5342 35.4984 28.0481 35.7187 28.601 35.8707C29.3576 36.0787 30.1238 36.1659 30.8997 36.1046C31.3259 36.0708 31.7458 35.9548 32.1667 35.868C32.674 35.7638 33.1238 35.5338 33.5601 35.2583C34.2929 34.7954 34.8358 34.1668 35.258 33.4218C35.5739 32.8642 35.7644 32.2571 35.9527 31.65C35.9904 31.5278 36.0216 31.4004 36.029 31.2738C36.0317 31.2265 35.9672 31.1546 35.9162 31.1305C35.8623 31.1051 35.7872 31.1222 35.7214 31.1222C34.1709 31.1222 32.6205 31.1222 31.07 31.1231C30.984 31.1231 30.8975 31.1231 30.7913 31.1231C30.7869 31.0245 30.7799 30.947 30.7799 30.8691C30.779 29.7377 30.7839 28.6063 30.7755 27.4749C30.7738 27.2678 30.8308 27.1959 31.0467 27.1964C34.0893 27.2025 37.1319 27.2021 40.1744 27.1964C40.3741 27.1964 40.4399 27.2524 40.4399 27.4574C40.4347 31.4941 40.436 35.5308 40.4355 39.5674C40.4355 39.6318 40.429 39.6967 40.4246 39.7768C40.3535 39.7829 40.2903 39.7935 40.2275 39.7935C39.284 39.7948 38.3405 39.7895 37.3969 39.7983C37.1797 39.8005 37.1336 39.6927 37.1064 39.5118C37.0331 39.0226 36.9401 38.5364 36.8633 38.0476C36.8185 37.7624 36.7939 37.4738 36.7501 37.1882C36.7391 37.1168 36.6891 37.0515 36.6566 36.9836C36.5995 37.02 36.5341 37.0471 36.4876 37.094C36.0097 37.5719 35.5656 38.0887 35.0508 38.5228C34.4887 38.9967 33.8567 39.3861 33.1462 39.6213C32.728 39.7597 32.3137 39.9117 31.8915 40.0357C31.6857 40.0961 31.4659 40.1141 31.2508 40.1364C30.7189 40.192 30.187 40.2472 29.6538 40.284C29.477 40.2963 29.2962 40.2472 29.1167 40.2332C28.6607 40.1977 28.1982 40.2039 27.7505 40.1242C27.112 40.0107 26.4695 39.892 25.8701 39.6231C25.3237 39.3778 24.7532 39.1737 24.2362 38.8776C23.28 38.3301 22.4751 37.5885 21.744 36.7659C21.0251 35.957 20.4652 35.0446 20.0189 34.0678C19.7845 33.5554 19.6217 33.007 19.4633 32.4638C19.2996 31.9041 19.1798 31.3316 19.0415 30.7644C19.038 30.7504 19.0389 30.7355 19.038 30.7206C19.002 30.1928 18.9678 29.6645 18.9292 29.1372C18.9121 28.9002 18.8634 28.6637 18.8682 28.428C18.8805 27.8634 18.8923 27.2967 18.9489 26.7351C19.0086 26.1416 19.0867 25.5464 19.2171 24.9652C19.383 24.2254 19.6011 23.5 19.8846 22.7896C20.2058 21.9845 20.6144 21.2364 21.1059 20.5281C21.6141 19.7958 22.2144 19.1432 22.8898 18.5637C23.6824 17.8839 24.5438 17.307 25.5247 16.9273C25.9798 16.7512 26.4362 16.5764 26.9022 16.4332C27.2156 16.3368 27.546 16.2961 27.8686 16.2313C28.4825 16.1082 29.1009 16.0434 29.7284 16.0464C30.0751 16.0482 30.4231 15.9759 30.7676 15.9934C31.3895 16.025 32.0127 16.0727 32.6279 16.1634C33.1589 16.2418 33.693 16.3487 34.2021 16.5151C34.9674 16.7652 35.7122 17.0727 36.4064 17.4971C37.2082 17.9877 37.9095 18.5873 38.5217 19.2951C39.0255 19.8768 39.4314 20.5255 39.7206 21.2338C39.9392 21.7694 40.095 22.3314 40.2591 22.8877C40.3473 23.1873 40.3938 23.4996 40.4689 23.8504L40.4684 23.8509Z" fill="url(#paint2_linear_7016_3105)"/>
</g>
</g>
<defs>
<linearGradient id="paint0_linear_7016_3105" x1="29.5" y1="0" x2="29.5" y2="91" gradientUnits="userSpaceOnUse">
<stop offset="0.165" stop-color="#00ADEE"/>
<stop offset="0.74" stop-color="#00B5B4"/>
</linearGradient>
<linearGradient id="paint1_linear_7016_3105" x1="29.5" y1="0" x2="29.5" y2="91" gradientUnits="userSpaceOnUse">
<stop offset="0.26" stop-color="#00B5B4"/>
<stop offset="0.835" stop-color="#00ADEE"/>
</linearGradient>
<linearGradient id="paint2_linear_7016_3105" x1="40.4689" y1="28.1383" x2="18.8678" y2="28.1383" gradientUnits="userSpaceOnUse">
<stop stop-color="#00ADEE"/>
<stop offset="1" stop-color="#00B5B4"/>
</linearGradient>
</defs>
</svg>
